<?xml version="1.0" encoding="UTF-8" standalone="no"?>
<svg
   xmlns:dc="http://purl.org/dc/elements/1.1/"
   xmlns:cc="http://creativecommons.org/ns#"
   xmlns:rdf="http://www.w3.org/1999/02/22-rdf-syntax-ns#"
   xmlns:svg="http://www.w3.org/2000/svg"
   xmlns="http://www.w3.org/2000/svg"
   xmlns:xlink="http://www.w3.org/1999/xlink"
   xmlns:sodipodi="http://sodipodi.sourceforge.net/DTD/sodipodi-0.dtd"
   xmlns:inkscape="http://www.inkscape.org/namespaces/inkscape"
   width="530.285"
   height="673.324"
   id="svg2443"
   sodipodi:version="0.32"
   inkscape:version="0.91 r13725"
   sodipodi:docname="logo.svg"
   inkscape:output_extension="org.inkscape.output.svg.inkscape"
   version="1.1">
  <metadata
     id="metadata2466">
    <rdf:RDF>
      <cc:Work
         rdf:about="">
        <dc:format>image/svg+xml</dc:format>
        <dc:type
           rdf:resource="http://purl.org/dc/dcmitype/StillImage" />
        <dc:title></dc:title>
        <dc:subject>
          <rdf:Bag>
            <rdf:li>tree plant stem leaves green</rdf:li>
          </rdf:Bag>
        </dc:subject>
      </cc:Work>
    </rdf:RDF>
  </metadata>
  <sodipodi:namedview
     inkscape:window-height="876"
     inkscape:window-width="1565"
     inkscape:pageshadow="2"
     inkscape:pageopacity="0.0"
     guidetolerance="10.0"
     gridtolerance="10.0"
     objecttolerance="10.0"
     borderopacity="1.0"
     bordercolor="#666666"
     pagecolor="#ffffff"
     id="base"
     showgrid="false"
     inkscape:zoom="1.3569219"
     inkscape:cx="159.43326"
     inkscape:cy="182.16062"
     inkscape:window-x="35"
     inkscape:window-y="24"
     inkscape:current-layer="svg2443"
     inkscape:window-maximized="1" />
  <defs
     id="defs2445">
    <linearGradient
       inkscape:collect="always"
       id="linearGradient4153">
      <stop
         style="stop-color:#39a66d;stop-opacity:1;"
         offset="0"
         id="stop4155" />
      <stop
         style="stop-color:#92008f;stop-opacity:1"
         offset="1"
         id="stop4157" />
    </linearGradient>
    <inkscape:perspective
       sodipodi:type="inkscape:persp3d"
       inkscape:vp_x="0 : 336.66199 : 1"
       inkscape:vp_y="0 : 1000 : 0"
       inkscape:vp_z="530.28497 : 336.66199 : 1"
       inkscape:persp3d-origin="265.14249 : 224.44132 : 1"
       id="perspective16" />
    <marker
       id="ArrowEnd"
       viewBox="0 0 10 10"
       refX="0"
       refY="5"
       markerUnits="strokeWidth"
       markerWidth="4"
       markerHeight="3"
       orient="auto">
      <path
         d="M 0 0 L 10 5 L 0 10 z"
         id="path2448" />
    </marker>
    <marker
       id="ArrowStart"
       viewBox="0 0 10 10"
       refX="10"
       refY="5"
       markerUnits="strokeWidth"
       markerWidth="4"
       markerHeight="3"
       orient="auto">
      <path
         d="M 10 0 L 0 5 L 10 10 z"
         id="path2451" />
    </marker>
    <radialGradient
       inkscape:collect="always"
       xlink:href="#linearGradient4153"
       id="radialGradient4539"
       cx="271.84583"
       cy="268.08749"
       fx="271.84583"
       fy="268.08749"
       r="234.92344"
       gradientTransform="matrix(1.683195,0.03259509,-0.02524433,1.3036028,-184.83822,-73.819709)"
       gradientUnits="userSpaceOnUse" />
    <radialGradient
       inkscape:collect="always"
       xlink:href="#linearGradient4153"
       id="radialGradient4193"
       gradientUnits="userSpaceOnUse"
       gradientTransform="matrix(1.683195,0.03259509,-0.02524433,1.3036028,-184.83822,-73.819709)"
       cx="271.84583"
       cy="268.08749"
       fx="271.84583"
       fy="268.08749"
       r="234.92344" />
  </defs>
  <g
     id="g2399"
     transform="translate(1.5586203,8.9755971)"
     style="fill:#222222;fill-opacity:1"
     inkscape:export-xdpi="90"
     inkscape:export-ydpi="90">
    <path
       id="path2459"
       d="m 259.90625,24 c -6.51663,-2.865984 -9.49194,5.872452 -14.8125,3.96875 -4.43606,0.01692 -10.48602,0.610009 -12.96875,4.375 0.71167,4.826176 -4.72342,12.539174 1.03843,14.968353 4.11127,4.094164 11.50848,5.26404 14.79931,-0.380234 6.99534,-6.042532 -4.60856,4.761077 -3.42665,7.813259 1.93358,5.838326 0.90286,13.620249 -6.94682,9.632431 -6.40532,-3.532794 6.28465,-3.366335 5.75236,-5.43105 1.45987,-6.462577 -3.70333,-8.702799 -9.12288,-9.165259 -6.54396,-1.087486 -9.52436,8.139649 -13.83519,3.517471 -6.50502,-3.160203 -10.61594,-1.7152 -8.29103,-8.156345 -5.02588,-1.060557 -12.8016,-9.703739 -14.30826,-1.115817 -2.84493,5.914173 -7.50173,-10.554777 -11.94859,-5.298766 -6.48912,7.429803 -5.948,-0.637293 -8.55232,-5.754825 -0.96453,-6.887889 -8.92967,-3.087099 -13.03336,-1.816718 -4.67054,2.462997 -3.47295,12.698476 -9.46875,8.84375 -4.78635,0.538096 -6.88072,11.237395 -13.20629,4.833153 -5.19444,-2.38165 -8.70367,6.155562 -13.20842,8.309405 -4.85479,1.539493 -12.99152,-3.710763 -15.06652,3.078717 -5.84819,4.684766 -1.23223,9.484386 1.83053,14.239512 3.35529,3.252802 -0.62177,7.536027 0.0257,11.539213 -0.61972,5.690292 1.07651,11.658202 1.78125,16.875 -5.08186,0.362941 -2.19279,-10.163281 -4.20596,-14.281073 -1.6327,-4.566911 1.10125,-12.776106 -5.76279,-12.968927 -3.82131,3.321423 -8.468439,5.043927 -14.650416,1.746935 -5.73813,-3.894373 -8.356503,6.399151 -14.240514,2.045587 -6.77576,-4.281064 -8.864442,2.489922 -11.698757,7.498925 -5.317626,5.848167 -3.514784,13.819234 -4.285313,21.021053 3.858053,4.15555 -10.454032,6.11775 -6.375,10.15625 6.881461,3.77258 2.861857,9.90152 2.943642,15.03282 5.806207,4.73808 7.112521,8.12742 -1.530727,4.96712 -7.73542,-4.33973 -7.732528,2.49712 -8.285622,8.56328 1.956599,5.2771 4.17793,9.54067 -2.096043,13.21803 2.308065,6.19302 4.64398,12.37571 6.96875,18.5625 3.929372,-2.24593 13.412362,-0.31678 12.0625,-6.5625 -0.0359,-8.56329 3.106244,-16.85436 8.125,-23.71875 0.367272,-4.93818 -8.526995,-10.60578 -1.40625,-10.09375 2.124263,-2.14291 6.25187,11.35527 2.723356,12.11948 -5.424984,1.45796 -6.224211,8.46855 -7.754606,13.25552 -2.638937,10.20917 4.071514,20.23853 13.03125,24.625 -2.791721,6.24175 -5.781429,12.46113 -5.09375,19.5 0.500451,-8.05012 -6.104073,-6.91403 -12.03125,-6.625 -2.880875,2.56796 -3.282754,11.41033 -7.3125,7.34375 -5.174857,1.16724 -13.802134,-1.81718 -13.501425,6.09715 -3.787747,6.09724 2.258723,10.88764 4.813925,16.1216 -6.037305,-0.047 -10.979491,6.02086 -9.03125,12 1.301923,5.05705 -1.154901,12.88363 6.025413,13.63539 10.24284,4.16159 -7.297568,-0.75004 -8.023546,1.90247 -0.574568,3.21599 5.377738,11.72685 0.373133,11.30589 -8.259099,-0.46775 -10.242815,11.37169 -4.706297,15.94243 1.14135,5.94907 14.651702,3.00045 13.589701,5.27388 -6.120827,1.96778 -12.556589,0.34834 -18.664654,-0.77881 4.486493,5.12915 8.11516,11.88409 13.1875,15.9375 0.343706,2.00067 -4.974419,8.71168 2.70229,12.40692 1.244673,6.37307 12.161524,-1.97054 8.61021,5.68683 3.150777,6.19732 9.019701,6.43813 15.21875,5.96875 3.377268,-6.14027 -4.116981,-8.47833 -7.497101,-12.26493 -2.8832,-3.98576 -2.580457,-10.38184 0.273513,-15.11284 1.911229,-1.78577 2.97979,-14.86722 5.405228,-9.61928 -0.151909,2.14408 -3.55128,4.74968 -2.83789,8.43455 -1.638329,11.76981 6.753243,22.66387 17.8125,25.90625 5.30664,0.29479 5.023071,4.07464 4.09375,8.5625 4.716957,2.50913 9.343905,5.76531 14.375,2.15625 3.25825,4.63533 7.25556,10.55153 13.875,8.75 4.05211,0.65654 7.23044,-2.4643 9.71875,-5.125 4.29469,4.1405 9.54997,8.7375 15.21875,9.75 7.96397,-2.7989 16.8289,-7.68807 18.46875,-16.71875 5.06111,-0.33755 13.23345,6.39952 15.67292,0.13461 4.20526,-4.90561 4.4938,-12.72353 -0.79792,-16.94711 2.14753,-5.12391 10.85285,0.17815 15.11262,-2.84961 7.40037,-1.88164 5.41953,-10.2186 7.85359,-15.86677 2.92724,-5.76048 -3.72801,-10.00811 -5.87246,-14.93987 -7.16441,6.8468 -6.42448,1.69823 -4.37617,-5.46699 3.38977,-5.62895 -8.452,-6.55608 -6.46763,-10.65161 1.08742,-10.22732 3.42538,2.19624 8.91269,4.20831 3.04595,4.30196 2.17825,10.62511 7.96236,13.78529 2.41155,-2.19826 5.45592,-3.79328 8.8125,-3.3125 1.94224,-2.60237 8.91072,-15.948 6.80528,-9.94444 -5.05572,6.82677 2.2497,7.36269 7.58628,8.906 5.29012,1.64779 8.13598,-6.81996 12.44106,-9.29494 -0.15307,2.52199 -10.59798,8.3742 -4.30833,10.56841 4.99751,3.62362 11.08035,4.21508 16.66321,1.57747 2.76209,-4.6419 -0.15213,-11.40403 3.0625,-14.3125 6.55869,-0.63173 14.7984,3.0477 18.84375,-3.875 0.67661,-4.24727 6.52682,-15.05193 -1.21875,-8.1875 0.98995,-5.47565 2.68403,-11.84584 3.9375,-17.65625 5.03788,-0.20083 3.67764,10.40118 6.1875,14.46875 3.35159,3.46111 11.69617,0.32037 16.96711,1.24696 2.81622,1.71315 -10.75196,1.36812 -14.70237,1.76166 -6.88266,-1.66052 -6.83292,7.2992 -10.01474,11.33513 -3.38648,5.64453 2.02944,8.3906 5.83326,11.57057 4.15725,4.30431 8.85353,1.70588 12.11682,-2.09376 2.17272,-6.34058 4.47761,-6.26274 10.76867,-3.50806 4.57676,0.16156 10.83037,1.06959 11.5,-3.75 3.51971,5.29534 8.57154,9.46198 13.84375,12.90625 -3.58091,0.52543 -13.92649,-4.82189 -10.1875,2.125 1.36905,3.88217 0.3269,12.24962 5.96875,12.6875 4.61119,-2.27323 5.64596,-9.09732 9.28125,-11.75 5.32033,7.1632 8.09175,-11.58896 10.62913,-3.9706 3.2586,2.01256 9.88633,6.8173 13.68269,4.22053 5.18372,-6.25708 7.72642,-5.09782 12.74098,-0.55253 6.09231,3.90146 13.41687,0.2583 16.45544,-5.7296 2.88547,-6.33776 10.73218,-1.37577 16.02955,-1.65936 9.21008,-1.17015 4.62473,4.12195 -1.7309,4.08145 -4.97181,-0.581 -12.37505,-2.93027 -14.04443,3.788 -3.13126,4.22406 -10.22657,8.71645 -14.59482,3.38072 -4.50635,-6.45046 -9.77591,-0.54692 -14.83736,1.85194 -4.29179,3.08628 -13.33466,4.17224 -8.7647,11.00741 0.10889,5.85053 7.6498,4.38946 11.59067,6.23829 9.51393,-1.91564 7.83361,2.07981 2.74563,7.86936 -0.50192,-3.62182 -1.97556,-7.02421 -6.40188,-6.18186 -4.47197,-0.5908 -8.82737,-1.83756 -12.96875,-3.46875 -1.89941,-4.86856 -1.4218,-16.16069 -7.92749,-8.5311 -4.95158,4.3952 -12.53139,6.92617 -15.91961,12.42725 -1.5396,5.38738 8.14681,6.76322 11.28043,10.48367 4.32894,2.66867 10.78203,9.44011 15.03542,3.21393 6.81998,-1.23001 5.4555,10.13271 12.375,7.6875 7.82702,1.57456 10.09402,-1.11614 6.40353,-8.31496 -4.50575,-9.36339 1.13397,-5.94542 6.93855,-2.21529 5.18104,2.85202 10.09571,6.69196 16.37667,5.624 -3.07992,7.08224 -1.99791,10.93814 6.33998,9.27527 6.16585,2.06858 8.17853,-5.08721 10.75377,-9.15027 2.30653,-3.16382 1.84125,-10.20077 7.25592,-7.42337 5.80045,1.49619 11.62408,2.96378 14.16721,-3.98404 4.97666,-3.26938 5.47204,-11.71083 9.76305,-12.30666 6.80279,1.77628 9.85582,-2.44832 11.95908,-8.29375 4.1086,-7.71886 3.46635,7.20685 -2.43071,8.28029 -2.52612,5.69484 -10.24831,-3.36159 -12.13885,3.90543 -0.1347,6.02835 1.09146,10.88038 8.0603,10.94628 4.71046,2.83196 11.39732,1.12383 14.739,-2.06168 3.186,-4.37251 2.10955,-15.08428 9.24921,-13.5768 6.17774,2.12392 8.95287,-2.51639 11.62579,-7.2357 2.04012,-6.39038 -2.6065,-9.09645 -7.625,-11.59375 1.77437,-2.50645 4.17629,-15.17648 4.26127,-10.7859 0.289,6.35267 -0.0109,12.897 5.04605,17.58691 0.79991,5.8632 7.53134,7.37029 8.76897,0.70722 5.58684,-5.93906 -5.35411,-7.12927 -1.13879,-10.63323 1.03625,-4.68231 0.67098,-16.72615 1.59247,-5.31376 -0.31982,7.05974 5.57547,12.99114 2.34268,20.06613 -3.03654,2.61766 -11.54172,-1.83538 -13.49765,4.02888 -2.75718,4.40192 -9.14178,4.76882 -11.61487,8.64981 -2.18261,4.45877 6.03773,10.11299 10.14153,9.96481 5.89806,0.0979 11.82379,0.1307 13.02999,-6.96538 4.61271,-6.07566 0.80369,-11.6055 9.1044,-7.68999 5.16365,1.67831 7.73137,-5.27438 9.90675,-8.93399 2.03909,-4.66672 7.25699,-11.43986 1.77595,-15.71276 -6.5456,2.63816 -5.26673,-7.21266 -7.51676,-10.69826 -2.16039,-6.02267 -10.71402,-1.14521 -13.98324,-3.58299 3.57663,-5.03738 -0.77232,-12.20653 -6.9375,-10.21875 -1.56733,-2.41292 4.31653,-11.50594 -0.75,-11.75 -3.48666,-1.05343 -16.9724,0.90078 -10.76616,-2.04771 0.15732,-5.20032 4.64514,-11.8864 -1.82021,-14.79746 -9.23644,-6.33335 0.35653,-3.48539 5.99762,-2.51593 5.80146,6.24043 7.30305,4.85901 5.7298,-3.4426 2.06953,-8.26585 -4.8962,-7.92751 -11.0835,-8.30624 -6.72048,-1.32497 -5.27348,10.17759 -4.52412,-1.74501 3.42918,-7.48838 -6.35497,-7.36237 -10.86588,-10.25216 -8.68216,-2.01256 -5.52538,-3.26238 -4.8478,-9.67129 -1.65755,-5.7501 -0.14157,-13.904 -7.70049,-15.20294 -5.35841,-3.57412 -10.48833,-5.9295 -13.74935,1.28924 -3.15482,0.94294 7.96899,-8.02288 3.21088,-12.67146 -1.13898,-5.26082 -8.31862,-6.7685 -11.86204,-10.41769 4.41578,0.64571 15.15552,-1.16834 14.71512,4.21456 0.30441,4.17561 -2.64406,12.52522 3.2171,13.21948 4.02787,2.6216 13.80662,1.95564 14.44998,6.51208 -2.03722,6.11993 -1.25688,12.54279 -1.3822,18.86638 3.37086,-3.29718 6.27434,-2.07917 8.6875,1.34375 3.35631,3.54821 7.43681,6.83404 12.5625,7.09375 1.24044,-4.98534 11.99518,-4.3158 10.29075,-11.2413 -1.64852,-8.67591 5.20172,-8.31818 10.00618,-11.129 6.78315,-4.25447 3.19832,-7.82878 -2.16369,-11.22346 -3.39844,-4.66175 -12.38258,-4.62136 -11.22699,-11.74999 -6.21285,-2.93303 -3.69712,-5.20962 1.61622,-9.69748 6.40161,-3.47313 3.79715,-10.46902 3.94628,-16.39627 -6.56175,1.42345 -12.2095,4.37956 -16.36937,9.76323 -6.79708,6.26748 4.86397,-4.04057 1.71312,-7.95073 -2.43306,-3.9743 -4.32602,-11.21536 -10.46875,-9.21875 2.17739,-4.54217 0.43998,-11.07549 -5.39724,-11.17584 -3.69525,-1.13921 -11.68826,-3.13188 -4.16526,-3.57416 6.6501,-0.91883 12.55388,3.06898 17.03125,7.5625 0.6956,-5.57311 2.1839,-11.46474 -0.0465,-16.42355 0.36474,-3.685875 4.76307,-11.957635 0.14025,-12.1702 -5.12345,0.581785 -9.49487,-0.663912 -13.6875,-3.34375 -4.72527,-2.198332 -10.42364,-2.731371 -15.25,-0.5 4.32364,-3.98406 2.85429,-10.146976 3.8125,-15.375 -6.06878,0.122019 -12.83307,1.478013 -14.62462,-5.988501 -2.57298,-5.522994 -10.10605,-6.895588 -0.0601,-7.93407 -1.5552,-4.042548 -2.26283,-10.923516 -5.42286,-13.857071 -5.82612,-3.321226 -8.52415,2.108988 -11.79868,6.029642 1.01477,5.439795 3.33273,11.766439 -4.19486,6.235512 -4.5323,-5.720733 -12.60837,0.703194 -10.08639,5.014488 4.22464,3.145857 8.04049,11.347154 13.68016,7.320039 1.54042,-7.380547 6.83625,-9.586127 1.03859,-1.663789 -1.54785,4.46919 9.0805,7.690044 5.875,13.25 -4.44771,-2.388365 -8.51227,-9.152439 -13.1875,-8.96875 -6.6569,4.948601 -3.51389,-5.388379 -10.93018,-5.72339 -8.12984,-7.522308 -5.87068,0.734494 -12.28769,1.432204 -9.03447,1.403269 -4.20377,-1.426414 0.12153,-5.310678 -2.32527,-6.184334 -5.51682,-6.880755 3.65884,-7.116886 4.6555,-0.351028 -0.62175,-7.688801 -0.4375,-11.0625 -2.33032,-5.518293 -9.83802,-2.799653 -12.5625,0.90625 -1.66415,4.895253 2.30276,12.614034 -6.90625,8.90625 5.87882,-0.245395 3.83047,-9.933832 6.34378,-14.188966 1.08069,-5.599402 -3.10052,-11.83232 -9.0918,-7.753844 -8.0315,-0.878202 -6.74558,7.003791 -7.96352,12.555907 0.93426,2.114782 2.04552,5.081778 2.39904,7.949403 -0.25842,3.494344 -10.27865,-3.409767 -14.361,-3.98843 -5.59502,-0.868712 1.32362,-8.907945 -5.12997,-11.280989 -4.23093,-1.187711 -12.44163,-12.136683 -12.89975,-4.126447 -3.20843,6.306413 0.59976,7.171515 3.14072,11.583366 1.00959,4.220816 5.52938,9.407311 10.0625,6.5 -0.16944,2.660335 -0.22565,5.362428 0.15625,8 -4.70523,-4.799239 -10.46947,-7.530927 -17.0625,-8.625 -1.21063,-6.024011 -1.94432,-12.7776 -9.5625,-9 7.60091,-5.434527 2.56214,-7.503698 -4.39078,-8.994844 -6.13617,-4.120256 -10.49298,-1.452195 -14.06371,4.279706 -2.31124,3.917833 3.73189,7.980893 7.73574,7.090138 4.97954,4.494712 12.82129,-4.332721 7.35768,3.409636 -5.48286,1.406128 -11.79114,-4.096752 -16.85768,-2.315886 2.42431,-5.63792 -4.08244,-6.000818 -7.40625,-8.59375 C 267.06745,29.619025 263.77872,25.913884 259.90625,24 Z m 3.3125,23.40625 c 1.72462,7.758294 10.0405,1.929844 13.41086,5.921411 6.06392,8.078266 -2.56354,6.070109 -6.43098,1.054617 -6.25852,0.482679 -7.21015,-4.813044 -11.81793,-7.896132 -11.45226,-4.727169 2.29546,-2.712704 4.83805,0.920104 z m 82.375,2.375 c -0.0414,0.120471 -0.19591,-0.09901 0,0 z M 169.4375,51.4375 c 4.29148,1.395382 7.68396,8.353124 12.1421,6.647284 9.74362,-4.19146 5.21008,-0.554587 -1.92335,1.602716 -5.57362,9.878864 -0.18489,-1.561712 -6.94151,-2.699231 -1.83962,-4.052306 -16.58304,-2.917067 -10.39188,-5.362844 2.3784,-2.00828 4.5191,-1.197948 7.11464,-0.187925 z m 28.15625,5.25 c 4.56801,4.623658 9.19506,9.217421 9.1453,16.179236 1.62478,7.211964 7.89954,2.021596 12.7922,3.039514 6.95839,3.443192 10.20516,-4.810065 10.75543,-6.475925 -1.12607,2.450885 1.16244,9.227346 -3.41168,7.975925 -9.04121,-1.412276 -18.91555,0.719506 -26.46875,5.9375 3.80995,-7.625601 4.19605,-19.350583 -4.33648,-23.924754 -4.74164,-3.746797 -4.42382,-3.27029 1.52398,-2.731496 z M 325.875,57.5 c 0.87174,3.396579 1.93368,6.580922 0.46875,10.0625 C 327.32801,63.413085 320.59589,61.102863 325.875,57.5 Z M 148.53125,70.625 c -5.15813,-2.112611 -10.04828,-5.272544 -15.84375,-4.9375 5.06997,-1.028865 12.31309,2.376685 16.03189,-1.429176 1.07714,-1.180194 -0.34595,5.034296 -0.18814,6.366676 z m 206.6875,1.34375 c -5.54059,-0.28221 -12.40898,-2.95825 -17.1875,-1.71875 3.80987,-2.554031 8.31368,-5.410654 12.71875,-2.90625 6.04031,1.844477 8.98337,-4.394619 4.46875,4.625 z m -48.84375,1.5 c 5.72687,3.216045 9.78938,-1.452939 12.10488,1.194394 6.10522,0.708216 5.00295,0.105028 8.93869,4.688741 1.71066,3.555185 1.95428,9.275802 6.14393,11.898115 3.87504,2.967118 8.92638,4.160874 13.6875,4.15625 -7.20052,0.215574 -9.30673,4.90056 -9.30988,11.46965 -3.96251,7.04966 6.14518,11.46368 3.76284,18.34464 -0.96311,11.0369 -0.87489,-2.87518 -2.54671,-6.40804 -5.85776,-3.45111 -5.56701,-7.34146 -2,-11.53125 -0.64613,-6.00691 -2.08017,-11.548541 -7.86845,-14.498023 -4.06516,-3.465244 -0.60304,-12.171165 -8.06337,-12.440381 -4.40897,-0.223217 -12.40829,-8.933569 -14.0523,-2.628303 -1.04315,5.070364 -5.97551,10.913393 -4.73463,15.535457 7.96565,6.96596 -2.44624,1.059812 -1.55903,-4.040125 0.25175,-6.098344 5.31548,-13.261506 -0.94097,-17.741125 -6.79141,-8.641056 4.04803,1.322797 6.4375,2 z m 73.34375,7.90625 c 4.57024,2.425016 8.56368,9.298002 13.95993,4.723276 6.85687,-0.0803 10.61728,3.66209 7.63382,9.870474 -0.59881,-6.759515 -9.90275,-9.523036 -14.84375,-6.71875 -4.1734,-4.095802 -10.32621,-4.555052 -15.53125,-6.65625 1.66986,-2.802264 6.04146,-0.687781 8.78125,-1.21875 z m 47.1875,3.125 c -0.4634,12.784255 -0.77293,25.75477 -2,38.3125 3.93783,6.52221 7.01262,14.11044 3.0625,21.4375 -4.01832,11.26084 -1.74501,-0.12931 -1.06882,-5.76954 2.87142,-7.33618 -5.17038,-11.77864 -8.36868,-17.51171 6.65784,-4.4081 3.23395,-7.93211 -2.24102,-11.30759 -0.161,-4.97068 -8.26939,-11.381252 1.36602,-7.34866 5.86791,0.14169 -0.24827,-10.27306 5.06973,-13.102412 0.7491,-0.34244 5.00921,-8.487056 4.18027,-4.710088 z m -226.9375,13.34375 c -1.66632,6.0943 -2.04775,-6.238668 -5.21221,-6.866072 4.04698,-8.385999 3.37812,3.242911 5.21221,6.866072 z m 165.0625,1.59375 c -2.36015,7.04755 -13.7204,-5.093494 -10.56973,-4.576176 3.90216,-0.663561 7.05146,3.323711 10.56973,4.576176 z m 37.75,-1 c 10.8213,0.681818 -10.33221,4.0279 -1.375,-0.1875 -0.11929,-0.677311 1.03156,0.272155 1.375,0.1875 z m -29.9375,0.53125 c 6.13742,-0.604295 11.82389,3.11855 17.09375,4.65625 7.87935,-5.94078 -0.79556,9.2644 -2.78125,7.1875 -2.41575,-4.93591 -3.11735,-12.064783 -10.29356,-10.992491 -0.59956,-0.207914 -5.15578,-0.759165 -4.01894,-0.851259 z M 206.15625,101.75 c 5.86352,1.46841 3.84721,8.06197 4.03125,12.53125 -4.72891,-1.82624 3.79607,-10.77669 -5.07076,-12.32099 -3.82693,-2.711024 -1.91729,-1.79196 1.03951,-0.21026 z m -102.9375,3.375 c -4.79369,6.12288 -5.68963,15.35071 -2.375,22 3.88799,3.40528 8.45551,3.48215 9.72132,7.62231 2.77731,4.00894 12.32663,12.74877 2.00324,7.60561 -5.05667,-3.02808 -8.34639,-2.27537 -7.69331,3.77208 -0.38671,6.32041 1.12904,12.51583 2.25,18.6875 -5.61074,0.37021 -4.40464,-3.61253 -4.16039,-8.4354 -0.45534,-7.40231 1.58823,-15.54313 -0.37086,-22.5021 -6.022804,-8.0118 -5.092965,-19.31114 -4.25,-28.125 1.96721,1.02791 3.2258,0.48535 4.875,-0.625 z M 79.5625,116.40625 c -1.559344,3.29587 8.046517,6.32367 3.4375,8.65625 -2.652851,1.72643 -7.697128,4.70922 -2.796191,-0.22143 1.711083,-4.42203 -6.576019,-8.96515 -1.891309,-14.71607 8.665641,-7.48908 2.115151,0.81694 1.25,6.28125 z m 136.125,-0.0625 c 6.61116,4.05088 5.89546,13.59482 2.71875,19.5625 -1.00986,4.20256 4.41925,6.95656 2,11.21875 -2.33301,3.99976 0.77444,9.04181 5.5,8.40625 7.22915,0.32167 13.90026,10.1711 7.6448,15.84505 -5.14897,6.81048 5.31274,-7.3414 -1.86362,-8.43136 -3.96414,-3.68643 -7.15589,-9.74748 -13.37675,-6.48082 -1.22838,-5.93873 2.80838,-14.27902 -3.06068,-18.21412 5.40033,-1.84932 1.89814,-9.86415 3.4375,-14.375 -0.65781,-2.087 -3.43363,-6.65272 -3,-7.53125 z m -106.0625,7 c -0.28385,2.47004 -0.9074,0.51533 0,0 z m 230.78125,12.5 c 1.47839,4.31802 11.6269,8.84316 0.84107,6.21735 -5.77088,-2.84692 -9.99989,6.9857 -13.25579,4.59348 -2.6063,-4.83956 -12.39793,-8.96492 -2.73224,-6.9998 4.02675,1.66559 11.49313,2.64237 13.09482,-3.2049 1.4544,-1.63689 3.27877,-6.28776 2.05214,-0.60613 z m 112.71875,8 c 2.32114,4.32955 12.33374,8.05921 6.99551,13.03983 -3.00557,3.99023 -8.55604,14.85008 -5.97018,3.55469 1.127,-5.87516 1.55431,-11.59245 -2.62706,-16.41311 -0.88374,-0.3686 4.0202,-1.4064 1.60173,-0.18141 z m -101.15625,3.21875 c 1.44971,4.64214 -2.9081,13.90502 4,14.1875 -8.97028,2.74873 -6.24957,-6.37086 -6.85105,-12.11787 0.23113,-3.91832 -1.6764,-6.5351 2.85105,-2.06963 z m -70.59375,0.21875 c -4.73196,-0.68806 -5.68729,-3.42425 0,0 z M 290.1875,152 c 0.37395,5.62501 -1.40745,11.76951 5.12492,13.85419 7.34383,2.65739 2.79885,10.34734 2.9209,16.07719 3.23572,3.92012 12.10159,5.86054 8.03296,12.21018 0.12663,4.98056 -4.75177,11.70175 -8.82878,10.85844 3.40699,-2.37151 6.76477,-9.90853 4.4216,-13.54888 -2.45668,-4.49855 -9.92382,-7.47715 -5.9841,-13.16987 1.75474,-5.16079 -1.06095,-12.5454 -7.46875,-11.625 -4.51756,-1.44699 -1.23968,-9.65222 -2.59042,-13.70672 -1.16009,-6.08801 1.39965,-1.84346 4.37167,-0.94953 z m 117.34375,-0.125 c -2.5329,1.99189 -8.45897,14.74017 -8.375,8.875 -2.54277,-6.11621 -6.65444,-11.8038 1.875,-7.5625 1.09603,0.16928 10.21046,-4.93428 6.5,-1.3125 z M 108.8125,165.8125 c -3.10394,-0.85329 -0.47317,-4.12634 0,0 z m 255.625,1.6875 c -0.86255,5.82152 -1.66522,11.65301 -2.5625,17.46875 -4.413,-1.21125 3.56534,-6.56578 1.67061,-12.72325 0.34008,-1.08306 0.31777,-4.61597 0.89189,-4.7455 z m 85.6875,3.96875 c -13.54216,3.40126 5.80027,-6.76453 0.76,-1.0967 l -0.56959,0.82193 z m -358.65625,0.4375 c -0.405515,1.78995 -2.645766,4.3968 -0.8125,1.21875 0.06722,-0.22805 1.304227,-2.15656 0.8125,-1.21875 z m 135.21875,6.6875 c -2.94502,1.30392 0.0661,-0.61753 0,0 z m -138.75,2.21875 c 0.439317,7.91553 7.212064,13.43682 12.90625,18.09375 -5.71117,6.46147 1.45062,7.56992 6.83438,9.40274 -3.78418,0.50072 -13.974189,-5.99376 -13.328844,2.51125 -0.477058,5.32631 -6.007693,12.44935 1.378682,14.95913 0.625567,4.71409 -4.709692,11.63388 -3.207211,15.91075 7.609083,1.59629 5.298485,7.73683 4.010493,13.40363 4.44008,7.98916 0.234038,8.61158 -2.300219,0.55022 0.123177,-5.13198 6.461219,-11.97525 -1.621653,-13.85991 -5.332082,-3.68692 -8.923223,-0.74179 -5.029212,-8.43319 0.150704,-4.98719 6.809277,-13.04083 -1.02611,-14.22583 -6.237797,-2.09967 -0.928618,-9.98301 -8.989561,-11.17236 -5.867328,-7.8371 5.509597,1.85277 8.324794,3.78838 4.749914,5.59923 6.803555,-5.54537 10.266961,-8.11606 1.982481,-6.88888 -3.309574,-10.61917 -7.948191,-14.62212 -5.323564,-3.93658 -5.437647,-5.0783 -0.270559,-8.19038 z m 31.46875,2.5625 c 2.75772,1.68167 -3.60571,0.53515 -4.8125,-0.0625 -4.53306,-5.11093 3.04019,-0.91657 4.8125,0.0625 z m 3.71875,3.125 c 3.20827,3.57624 2.55689,10.37179 8.3125,11.65625 2.76333,1.37016 6.49253,1.03385 9,1.03125 0.95908,5.47026 6.5065,8.61598 11.125,9.6875 -6.97864,1.097 -10.15363,-5.61171 -15,-9 -4.83966,-2.58571 -15.07608,-0.60578 -12.65665,-7.66757 -0.23797,-1.85656 -0.61577,-3.98345 -0.78085,-5.70743 z m 245.5,4.4375 c 1.61022,12.47792 -5.18277,23.55629 -8.46875,35.21875 -7.08978,0.39545 -7.13502,-0.95366 -1.3125,-2.28125 1.55196,-5.72335 8.49357,-11.62807 3.4744,-17.14462 3.528,0.32605 5.79576,-6.26077 5.76317,-12.48937 0.1896,-1.04405 0.31388,-2.39274 0.54368,-3.30351 z m 41.125,4.59375 c -6.62805,4.49071 -11.57893,-2.01055 -2.47804,-1.63644 z M 399.84375,196.5 c -1.58389,0.81925 1.91221,-1.33433 0,0 z m -71.65625,4.21875 c -2.0004,9.26741 -3.31657,18.51562 -6.65907,27.19226 -4.06755,6.48827 -11.27095,8.03329 -18.09093,10.18274 -2.74882,-7.14306 2.86505,-8.2318 9.61187,-5.35066 5.45641,1.3717 6.34532,-7.89413 9.88813,-11.05559 -1.97539,-4.11485 0.15821,-7.0577 1.71875,-10.625 1.49769,-4.13886 -0.41817,-8.57484 1.46875,-12.625 z m 89.78125,4.1875 c 1.2373,2.04265 17.10367,7.2182 9.07686,5.21554 -4.16278,-3.27351 -6.91731,-1.4273 -8.51436,2.97196 -2.93717,5.72886 -4.54507,12.05648 -4.9375,18.5 -4.35168,2.42888 -9.53196,7.26706 -6.23747,1.55751 6.95464,-0.30061 4.03564,-8.45739 5.48747,-13.12001 -2.33821,-6.1366 -6.79104,-6.71448 -0.59375,-7.3125 1.63841,-1.58431 4.56218,-9.1773 5.71875,-7.8125 z M 111.625,207.6875 c 0.51303,5.46053 6.78196,7.91833 9.53125,12.21875 -7.77522,-2.29858 -1.17702,13.31986 -7.10715,8.1137 0.32276,-6.52857 -2.03468,-12.81715 -4.39285,-18.95745 0.55989,0.70515 1.6641,-1.96272 1.96875,-1.375 z m 321.84375,10.625 c -1.33774,5.29143 -5.07337,11.08821 0.99482,14.82529 -6.13384,2.19823 -4.52351,-7.60637 -3.21435,-12.88918 1.65458,-3.41633 -2.13906,-11.10217 2.21953,-1.93611 z M 82.875,217.4375 c -2.030339,2.68498 -1.592297,16.1872 -4.875,5.90625 -2.317132,-3.13354 -16.946318,1.06924 -6.811116,-3.36507 3.710441,-0.69926 9.05562,-7.45023 11.686116,-2.54118 z m 150.5625,8.9375 c 0.53515,2.39022 -11.1842,7.02274 -6.10495,2.29327 2.19618,-3.63242 5.32652,-6.80139 6.3237,-11.01202 z m -171.875,22.65625 c 2.13141,6.0727 8.672235,3.89068 12.020801,-0.54443 7.612311,-8.39654 3.540877,2.86129 3.075133,8.05364 -0.340698,6.9096 -8.854217,-3.20817 -12.814684,-3.97796 -4.455518,6.67297 -3.805194,-7.88719 -5.908671,-11.00035 -3.256714,-5.89343 2.54627,-10.81284 4.408671,-16.1559 z M 127.03125,236 c -0.86218,6.19572 -3.8894,9.14923 -3.34375,0.8125 -4.34434,-6.57137 -7.75578,-6.86815 0.98538,-2.17829 z m 314.4375,5.5625 c -0.29161,4.67116 -2.89577,11.93022 3.40625,13.6875 1.33104,0.86125 5.60569,0.89379 2.03125,1.96875 -4.96125,2.24612 -3.16975,5.67691 -8.80455,-0.16071 -8.00699,-3.108 0.90075,-9.02319 2.7108,-13.74554 -0.20772,-1.52319 -1.17616,-4.73721 0.65625,-1.75 z m -33.78125,5.21875 c -8.54284,6.54539 -5.16178,-1.52376 0,-5.6875 z M 226.6875,245 c -3.25913,8.58964 -6.27325,6.55459 -2.28704,-0.0137 0.20652,0.24146 3.06805,-0.75385 2.28704,0.0137 z m 25.4375,1.4375 c -2.33868,8.2241 3.25162,8.51921 9.9375,7.71875 -2.94991,2.35275 -16.59779,1.90613 -13.97938,0.38779 3.2103,-0.87644 1.30677,-7.75146 4.04188,-8.10654 z m 146.78125,2.71875 c -6.59706,-0.80454 -1.78518,10.22208 -9.15644,12.55747 -1.93528,7.48347 -12.84481,-1.46403 -10.74201,-2.81814 3.24798,4.17792 10.57894,5.0661 11.98603,-1.13205 5.99373,-3.17421 -1.1689,-15.17839 7.13887,-9.00563 z m -272.4375,5 c -3.24227,-0.53282 -1.87826,-5.46437 0,0 z m 14.40625,3.78125 c 6.9604,6.68915 -10.58682,-4.27258 -5.76165,-1.21298 z M 56.59375,257.625 c 6.383369,-0.69844 -3.22412,3.66437 -1.09375,7.21875 0.861087,7.15146 4.084888,13.79346 7.3125,20.21875 -5.220232,-0.19691 -13.708216,2.26506 -9.175694,-5.94771 0.248199,-5.39449 -1.732703,-10.50618 1.228741,-15.94835 0.621094,-1.65482 0.81585,-4.56651 1.728203,-5.54144 z m 177.96875,1.25 c -5.84503,4.24529 -6.13168,-2.04343 0,0 z M 216,260.96875 c -6.36297,4.30266 -7.89281,-1.42873 -1.48744,-0.45498 l 0.95626,0.2925 z M 99.96875,262.875 c 5.0447,0.0426 0.40467,13.97479 1.52585,3.23096 0.94539,-1.41583 -1.783386,-3.79834 -1.52585,-3.23096 z m 345,12.75 c -4.05465,4.68515 -5.29999,10.25011 -10.65625,3.59375 5.93436,0.88087 8.26351,-13.2404 10.07167,-9.50969 z m -195.5625,-6.59375 c -1.01258,4.25877 -9.36428,10.59757 -5.5625,13.5 4.43689,3.65019 9.92794,3.4878 15.34375,3.625 0.99231,-6.0342 1.99773,-12.06645 3.03125,-18.09375 -3.88525,0.67219 -9.9624,-1.37147 -12.8125,0.96875 z m -146.78125,7.0625 c 0.95313,3.60015 15.846,7.01483 8.35558,5.6184 -4.04358,0.38418 -9.33193,-2.73122 -8.35558,-5.6184 z m 29.8125,12.53125 c 9.85372,1.6229 -3.43367,0.46024 -5.51018,-3.92326 -9.05029,-6.57974 -3.89575,-3.12867 2.02839,1.35674 z"
       style="fill:#222222;fill-opacity:1;fill-rule:evenodd;stroke:none"
       inkscape:connector-curvature="0"
       sodipodi:nodetypes="cccccccccccccccccccccccccccccccccccccccccccccccccccccccccccccccccccccccccccccccccccccccccccccccccccccccccccccccccccccccccccccccccccccccccccccccccccccccccccccccccccccccccccccccccccccccccccccccccccccccccccccccccccccccccccccccccccccccccccccccccccccccccccccccccccccccccccccccccccccccccccccccccccccccccccccccccccccccccccccccccccccccccccccccccccccccccccccccccccccccccccccccccccccccccccccccccccccccccccccccccccccccccccccccccccccccccccccccccccccccccccccccccccccccccccccccccccccccccccccccccccccccccccccccccccccccccccccccccc" />
    <path
       style="fill:#222222;fill-opacity:1;fill-rule:evenodd;stroke:none"
       d="m 168.78988,271.70767 c 9.469,9.38283 36.73614,36.18271 44.54612,46.96162 6.031,6.10727 10.563,14.74228 10.785,29.4769 l 2.153,67.55053 0.613,47.16675 c 0.414,15.86948 -1.371,28.90837 -8.012,35.7077 -8.105,4.97896 -16.73,8.97284 -26.5,10.779 -11.914,3.60467 -23.828,5.85143 -35.742,6.73483 4.711,2.17351 11.633,3.26355 24.649,1.35352 l 46.222,-11.45795 c 3.629,-1.63123 6.25,-4.18521 7.395,-8.08398 3.117,-11.71488 4.101,-23.10067 4.312,-34.36292 0.692,10.74074 1.168,21.79744 0.614,34.36292 -0.157,3.90752 -2.883,6.88352 -6.778,9.43313 -6.09,1.95595 -11.996,4.30986 -17.254,8.08508 -9.711,4.84776 -18.851,10.63468 -27.73,16.84362 26.355,-8.35293 69.637,-23.98844 69.797,-29.51078 l -0.153,-28.43497 2.465,-0.6702 0.153,34.34106 18.66,17.0273 18.312,-0.82873 c -7.187,-4.04418 -14.738,-8.31904 -22.34,-11.45795 -4.332,-2.90822 -6.797,-6.94803 -7.394,-12.12488 l -0.613,-47.16565 1.847,0 1.231,41.10103 c 1.718,6.68781 4.617,12.64201 9.242,17.51929 4.312,1.16548 8.629,4.03981 12.941,6.06025 4.723,2.69503 7.735,5.38896 13.864,7.57122 10.99437,0.91179 14.96918,7.78067 33.585,4.55366 l -30.812,-12.12488 c -8.113,-2.9771 -16.391,-5.62073 -23.418,-8.43056 -3.297,-3.13891 -5.555,-5.48844 -6.777,-9.08436 l -3.696,-46.49108 6.778,38.4071 c 1.672,6.01324 5.004,10.89052 9.996,14.63076 l 30.058,12.3173 22.801,9.42985 6.16,-2.02045 c -13.179,-5.54749 -26.074,-10.70685 -37.593,-13.98679 l -16.024,-6.89664 c -4.945,-1.98656 -7.406,-7.59745 -8.621,-16.84363 l -0.621,-10.10552 8.625,18.86408 c 1.121,2.08058 2.973,3.76319 4.93,5.39004 7.601,1.55907 14.793,4.03106 21.566,7.40941 12.816,5.82191 24.816,11.04905 33.895,14.14969 l 28.347,-1.34587 c -17.609,-5.85908 -35.992,-11.43718 -54.851,-16.84362 -7.629,-2.4217 -14.77,-5.65026 -21.571,-9.43423 -2.754,-2.88635 -4.652,-6.0854 -6.16,-9.42985 l -8.012,-113.87543 3.54,-2.37468 c 0.035,-9.76769 0.867,-19.5299 2.152,-29.29759 -11.953,0.14978 -16.77,-3.6637 -20.012,-10.77026 6.465,4.80403 12.738,8.26766 22.945,8.08398 1.938,-5.50047 6.364,-9.63867 9.547,-14.8024 3.703,-3.35211 31.356,-44.92146 32.938,-52.19092 -5.309,-5.67978 -11.113,-10.28373 -17.254,-14.1486 l -28.93,40.0398 c -3.328,2.24676 -6.547,4.89477 -9.859,7.41049 l -4.93,5.38896 -4.93,-2.01936 9.555,-7.74286 -2.16,-46.85953 -3.078,2.72127 0.613,33.68725 -2.465,0 -0.613,-33.68725 -5.848,3.36522 1.536,23.58283 c -1.02,1.57547 -2.352,2.25114 -4.618,2.02045 l 0.305,-24.9287 -9.859,4.0398 1.082,33.01377 -4.309,0 -0.469,-30.99332 -9.242,-3.36523 1.231,27.62263 c -2.055,0.67895 -3.903,0.67895 -5.543,0 l 0.613,-27.62263 c -3.379,-3.06237 -7.898,-2.37905 -12.941,0 l 0.613,20.88343 -3.078,-0.6702 0.011,-21.56347 -6.793,-2.69065 0.614,33.01377 c 2.629,2.48073 7.785,5.14624 16.636,8.08398 -1.437,2.24239 -2.468,4.7111 -3.078,7.41049 l -15.406,-10.78009 -42.812,-40.16905 c 4.54276,7.77409 5.84143,11.74064 -11.57412,14.09195 z m 77.89412,165.24421 1.18,0 -1.18,22.62289 z m -20.027,-95.19503 1.445,0 -0.852,55.96794 -0.59,-55.96794 z m 1.445,79.05659 3.18,0 -0.817,47.35808 z m 3.18,-60.39806 3.179,0 -1.476,114.14985 -1.7,-114.14985 z m 4.628,64.82599 0.868,0 -0.883,55.65307 z m 0.868,-80.9524 2.89,0 -1.179,74.30722 -1.707,-74.30722 z m 5.207,61.66193 2.601,0 -2.011,47.7473 z m 38.754,14.54657 2.601,0 -0.531,45.21409 -2.066,-45.21409 z m 6.941,-0.949 1.723,0 0,46.48343 -1.723,0 z m 3.355,-62.46005 2.012,-0.22194 -0.019,15.32391 -1.993,-15.0976 0,-0.004 z m -4.253,-4.06058 3.171,-0.21866 4.391,90.88627 -7.566,-90.66323 0.004,-0.004 z m -6.036,3.42427 2.289,-0.18696 2.883,69.45946 -1.105,0.18805 z m -4.343,-12.47911 2.879,0 0,104.34827 -2.879,0 z m -5.774,19.91475 3.742,0.32034 0,73.67529 -3.449,-0.32034 z m 22.473,-15.62239 c -0.961,-0.009 -1.891,0.18367 -2.856,0.18367 -2.39,-0.13666 -4.324,-1.77663 -6.121,-3.34336 l 0,0 c -0.242,-0.20991 -0.394,-0.539 -0.394,-0.90198 0,-0.63631 0.472,-1.15673 1.058,-1.15673 0.25,0 0.477,0.094 0.661,0.25146 l 0,0 c 0.652,0.56853 1.296,0.94353 1.89,1.61046 l -0.004,0.009 c 2.356,1.44755 3.153,1.03319 5.739,1.02881 l 0.023,0 c 0.582,0 1.059,0.51714 1.059,1.15783 0,0.63631 -0.477,1.15672 -1.059,1.15672 l 0.004,0.004 z M 238.211,334.4196 c -2.758,2.57914 -5.519,2.98913 -9.047,2.13525 l 0,0 c -0.472,-0.1148 -0.828,-0.57618 -0.828,-1.12721 0,-0.63631 0.473,-1.15782 1.059,-1.15782 0.094,0 0.183,0.0131 0.269,0.035 2.844,0.68333 4.942,0.43514 7.164,-1.64434 l 0,0 c 0.184,-0.17165 0.426,-0.2777 0.688,-0.2777 0.582,0 1.059,0.51604 1.059,1.15672 0,0.35096 -0.141,0.66693 -0.368,0.88012 l 0,0 0.004,0 z m 6.852,-8.52896 c -6.215,4.85214 -13.828,7.97793 -21.137,3.98077 l 0,0 c -0.453,-0.24818 -0.769,-0.76423 -0.769,-1.3579 0,-0.83748 0.625,-1.5208 1.39,-1.5208 0.223,0 0.434,0.0558 0.621,0.15853 l 0,0 c 6.321,3.45488 12.93,0.43514 18.278,-3.73696 l 0,0 c 0.226,-0.17493 0.504,-0.28207 0.804,-0.28207 0.766,0 1.391,0.68332 1.391,1.51971 0,0.50839 -0.231,0.96102 -0.582,1.23435"
       id="path2463"
       inkscape:connector-curvature="0"
       sodipodi:nodetypes="cccccccccccccccccccccccccccccccccccccccccccccccccccccccccccccccccccccccccccccccccccccccccccccccccccccccccccccccccccccccccccccccccccccccccccccccccccccccccccccccccccccsscccccssccccccsscccsscccccccssccccssc" />
    <flowRoot
       xml:space="preserve"
       id="flowRoot4157"
       style="font-style:normal;font-weight:normal;font-size:40px;line-height:125%;font-family:sans-serif;letter-spacing:0px;word-spacing:0px;fill:#000000;fill-opacity:1;stroke:none;stroke-width:1px;stroke-linecap:butt;stroke-linejoin:miter;stroke-opacity:1"
       transform="translate(-1.5586203,3.1172406)"><flowRegion
         id="flowRegion4159"><rect
           id="rect4161"
           width="456.84055"
           height="81.96257"
           x="38.965809"
           y="549.70831" /></flowRegion><flowPara
         id="flowPara4163" /></flowRoot>    <text
       xml:space="preserve"
       style="font-style:normal;font-variant:normal;font-weight:bold;font-stretch:normal;font-size:62.5px;line-height:125%;font-family:Purisa;-inkscape-font-specification:'Purisa, Bold';text-align:center;letter-spacing:0px;word-spacing:0px;writing-mode:lr-tb;text-anchor:middle;fill:#222222;fill-opacity:1;stroke:none;stroke-width:1px;stroke-linecap:butt;stroke-linejoin:miter;stroke-opacity:1"
       x="267.17111"
       y="606.57147"
       id="text4165"
       sodipodi:linespacing="125%"><tspan
         sodipodi:role="line"
         id="tspan4167"
         x="267.17111"
         y="606.57147"
         style="-inkscape-font-specification:'Ubuntu Mono, Normal';font-family:'Ubuntu Mono';font-weight:normal;font-style:normal;font-stretch:normal;font-variant:normal;font-size:62.5px;text-anchor:middle;text-align:center;writing-mode:lr;line-height:125%">sapucaia.tech</tspan></text>
  </g>
  <path
     id="path2394"
     d="m 109.06247,167.38193 c -1.269,-6.187 -1.593,-11.613 -0.765,-16.121 l 16.89,5.758 -12.668,-15.738 c -1.406,-5.5 -0.254,-10.489 3.453,-14.969 l -7.675,4.605 0,6.524 -5.371,-3.453 c -0.895,-4.223 -1.536,-8.442 -0.383,-12.668 1.406,-3.836 3.836,-7.676 7.293,-11.516 l 9.211,-0.383 1.535,-2.301 c -3.906,-9.136001 -3.02,-25.500001 1.535,-28.019001 l 5.375,-3.453 11.516,1.148 12.281,5.371 1.148,-12.2811 6.907,-6.5229 7.292,0.765 8.829,4.606 -0.383,11.515 6.906,-10.3631 9.594,-3.836 8.828,7.2931 c 2.687,6.906 2.047,14.969 -3.453,21.8789 l -6.141,4.988101 5.371,1.535 0,7.293 5.758,0.766 6.906,5.375 -2.3,8.441 8.058,2.301 3.07,6.906 -0.765,11.516 -4.223,1.918 4.606,4.223 0,16.886 7.293,-1.148 8.828,8.828 -3.071,8.442 -11.515,5.371 0.597,3.144 9.622,-3.203 c 1.593,-2.82 3.187,-4.172 4.785,-4.051 l 5.523,-8.468 c -0.613,-8.715 -5.152,-13.504 -13.625,-14.364 -2.82,-0.242 -3.68,-1.961 -2.574,-5.152 0.98,-2.453 0.98,-4.91 0,-7.363 -2.453,-2.207 -2.453,-4.911 0,-8.102 2.207,-12.703 -2.328,-17.98 -9.941,-19.887 l 0,-7.363 c -0.243,-2.328 -1.961,-4.172 -5.153,-5.519 l -5.152,-2.579 -2.578,-10.679001 c 6.504,-5.524 14.976,-8.1021 25.41,-7.731 3.68,0.981 5.89,0.489 6.629,-1.472 l 1.472,-12.153 9.942,2.207 4.785,-2.5781 -1.102,-11.414 5.891,-7.729903 6.996,3.312003 3.68,6.6289 5.152,-0.3629 8.102,5.89 1.301,3.903 3.835,-8.289 -4.828,-7.34 -8.886,0.387 -3.09,-4.055003 -7.34,-4.442 -8.113,1.352 -5.407,5.602003 -4.441,0.382 -6.762,-4.250003 1.543,-11.976 c 2.703,-1.672 6.18,-2.574 10.43,-2.703 l 3.859,1.156 5.407,-4.828 6.179,-0.192 c 5.117,4.395 10.656,8.161 16.805,11.012 l -0.578,7.727 3.859,-3.09 10.62501,2.894 5.793,0.383 3.09,-6.18 4.633,-0.769 2.512,9.465003 10.238,2.894 7.34,5.793 -3.09,4.442 3.281,5.601 -0.769,6.375 -3.282,1.157 -5.984,-5.407 -0.191,4.442 -6.762,-0.965 -10.43,-6.762 -9.851,-0.578 -2.821,3.48 11.039,0 2.946,4.786 2.945,3.679 -2.5,12.5 0.867,5.383001 1.629,1.266 14.359,12.886 1.473,-2.574 -13.258,-13.992 5.524,-14.359001 14.73,6.261 1.84,8.836001 7.363,6.2579 1.84,8.8361 -3.68,4.051 0.735,2.945 5.523,5.52 1.469,11.418 -4.785,6.996 -7.363,0 -1.84,-1.84 -13.992,2.574 -1.473,1.84 11.414,0.734 8.101,9.204 5.524,-5.891 4.418,-1.469 7.734,1.102 0.625,18.14 0.485,0.086 14.695,0.305 -2.449,17.453 -3.059,0.305 0,3.672 9.488,4.894 -2.14,14.086 -6.43,-0.609 4.285,7.961 -4.894,10.715 -0.379,0 -0.793,1.089 -2.77,-0.172 -1.73,1.036 -0.863,3.285 6.402,1.383 4.226,-0.516 8.965,-26.176 0,-11.883 -6.683,-5.195 2.597,-17.824 -5.195,-6.309 -7.055,-1.855 -0.367,-12.625 -11.508,-10.024 1.856,-15.222 -5.195,-8.91 2.226,-12.625 9.652,-2.969 11.137,8.539 5.195,-4.824 14.11,2.597 4.082,9.282 3.34,2.968 7.054,-12.254 13.739,-1.484 4.082,5.57 0,3.34 6.683,5.567 -4.453,5.195 9.653,12.625 -2.227,16.711 -4.082,-1.485 -10.766,-0.367 -8.168,2.969 -9.304,-4.418 6.297,14.613 -1.125,9.297 12.957,-17.746 9.293,6.477 1.125,6.476 -6.196,8.168 3.098,3.379 6.476,-7.324 11.829,5.914 2.535,13.519 -5.071,7.043 5.071,-0.277 15.773,6.758 -1.969,16.055 9.012,8.168 -1.687,9.859 -3.942,0.562 -1.125,15.774 c -2.156,2.437 -10.515,-0.469 -10.703,-2.817 l 0.844,-9.859 -10.703,-12.957 2.816,-9.859 -4.785,-9.575 -10.984,-4.222 -1.688,-5.633 -11.547,-7.605 -8.73,3.941 -1.969,6.758 5.07,-3.66 3.942,1.406 5.07,-1.973 6.758,4.223 -6.195,9.859 -2.536,-1.687 -1.968,1.125 0.281,2.531 4.504,6.195 -1.125,10.422 -7.324,2.535 4.222,6.477 -6.758,8.168 -7.043,-3.66 -1.687,3.379 1.125,4.789 -5.07,8.168 -3.379,0 -8.211,-6.383 0.883,6.793 2.074,2.761 8.297,4.493 10.367,-11.063 0,-5.531 8.297,0 4.148,-3.453 0,-11.754 5.875,-3.109 c 0.344,-8.961 2.879,-16.278 6.914,-22.473 l 6.567,2.766 0.691,3.8 -2.418,16.594 10.371,3.109 1.035,6.223 -7.257,11.406 12.445,10.024 -6.914,11.754 -7.258,2.765 0.687,2.071 2.766,0 7.258,5.183 -6.914,12.789 -11.406,0.344 0,4.84 -10.024,12.789 -14.172,-2.418 c -2.187,6.684 -4.953,12.789 -8.988,17.629 l -9.68,-0.344 2.075,-8.988 -8.645,-0.344 -16.246,-8.988 8.988,-13.137 -1.383,0 -3.8,3.801 -9.332,0 -8.989,-2.418 -1.726,-6.223 17.633,-9.679 7.605,5.531 4.492,0.344 7.949,-4.84 3.457,-5.528 3.454,-0.343 10.367,1.382 6.566,-5.531 1.035,-4.148 -5.183,1.726 -8.989,-1.383 -9.679,-1.035 -6.91,8.989 -5.184,2.074 -7.262,-2.422 -4.078,-5.422 -9.449,7.559 -9.695,-3.809 -2.594,-6.406 -7.098,10.215 c -10.215,-5.481 -18.41,-11.828 -22.16,-20.082 l -2.941,6.578 -9.176,0 -5.192,-2.594 -4.15201,0.344 -0.519,5.367 -2.942,2.074 -2.941,2.77 -3.633,-0.864 -7.27,-6.23 0.692,-3.981 5.019,-10.043 18.87101,-0.863 9.868,-6.75 4.672,-8.656 11.945,-3.981 7.269,-7.617 2.422,-10.043 0.274,0.024 3.601,-18.008 -5.203,-5.816 -2.14,8.265 c 0.941,5.266 -0.075,9.555 -3.059,12.86 l 0.918,5.816 -6.121,9.797 -13.473,-2.754 0,12.859 -7.043,8.879 -19.90201,0.305 -4.59,-16.84 -5.203,1.223 -3.977,17.449 -6.429,0 0,-7.348 -4.286,-0.918 -2.14,8.571 -9.184,5.203 -10.101,-2.145 0.304,10.41 -10.101,10.102 -8.879,-2.754 3.367,-9.797 5.508,-0.918 9.797,-16.531 c 4.672,-2.543 8.09,-7.238 7.043,-19.598 l 0.304,-12.859 -3.367,-2.754 c 0.02,3.973 -0.551,7.586 -2.445,10.406 l -9.492,14.082 7.961,-3.058 3.976,-1.836 c 0.567,2.277 0.656,4.679 -0.304,7.347 l -3.493,4.735 -6.914,0.773 -1.222,8.571 -2.45,7.652 -9.3,-2.859 0,7.738 -7.446,12.211 c -3.476,-0.102 -5.558,1.187 -7.445,2.679 l -3.871,-4.168 -0.594,-6.253 -8.933,-8.34 0,-14.297 -7.743,23.527 3.571,-1.785 5.359,4.168 -3.273,16.68 8.636,-5.957 5.36,8.339 -2.383,9.231 -1.188,6.254 -5.062,2.976 -13.996,0 -1.488,4.465 3.871,4.766 0.296,5.656 -3.871,6.848 -14.593,-3.274 c -0.875,9.743 -8.723,13.907 -17.571,17.274 -6.652,-3.227 -11.117,-6.996 -14.593,-11.02 -1.985,2.879 -4.368,4.961 -7.149,6.254 l -7.445,0 c -3.074,-2.281 -5.758,-5.359 -8.0393,-9.23 l -6.551005,2.382 -6.551,-3.273 0.594,-7.445 c -17.672,-4.071 -25.0196,-14.098 -22.0391,-30.082 l 3.5701,-2.383 c -7.1443,-12.41 -10.7224,-21.641 -10.7224,-27.699 l 6.8476,-7.742 13.4028,7.742 3.273,-20.551 6.848,-1.188 7.148,4.465 -2.976,9.532 2.378,6.55 5.063005,3.274 0.8913,12.508 3.57,5.062 10.422,1.785 5.062,-2.679 13.403,9.828 5.359,-0.297 7.742,-14.293 -8.34,10.125 -3.871,0 -12.508,-9.231 -5.359,2.68 -6.551,-1.785 -5.359,-4.168 0,-7.445 1.785,-3.571 -4.766,-2.383 -2.382305,-5.656 2.086305,-11.316 -6.551305,-3.867 4.465,-14.891 -4.762,-3.574 3.273,-13.403 11.020305,2.082 3.57,10.125 0.297,8.34 8.039,5.657 2.082,3.273 0.891,17.273 14.89,4.762 13.996,10.125 7.743,-2.68 0.203,-1.07 -2.824,-1.816 -5.895,1.605 -5.359,-4.019 -3.485,-5.895 -13.937,-2.945 -3.215,-5.09 1.605,-5.629 2.946,-4.285 -0.801,-3.484 -10.184,-5.895 0.535,-6.43 5.895,-1.336 -9.918,-10.453 c -1.613,-0.996 -1.902,-3.449 -0.871,-6.566 1.719,-2.774 3.918,-4.918 6.687,-6.293 l 15.11,4.07 8.406,8.145 8.145,1.05 6.172,-9.722 -4.86,5.121 c -1.883,0.851 -4.246,0.019 -6.828,-1.574 -2.777,-0.918 -4.355,-4.242 -5.387,-8.668 -3.019,1.73 -6.523,1.293 -10.246,-0.129 -2.32,-0.961 -3.765,-3.328 -4.336,-7.094 -1.597,-3.394 -3.918,-5.582 -6.566,-7.226 l -8.012,-3.938 -1.574,5.777 2.23,1.313 c 2.145,0.961 4.465,1.398 6.961,1.312 l 1.051,1.051 1.051,7.227 -1.836,2.101 -10.918,10.293 -8.578,-3.215 2.41,-5.359 c -12.863305,-9.648 -16.441305,-17.512 -10.723305,-23.59 1.426,-5.359 5.715,-8.219 12.864305,-8.578 l 7.504,4.555 -4.903,-11.907 z m 1.262,-84.301001 3.27,23.243001 -12.11,6.546 -12.109305,-3.601 -11.781,8.184 -1.961,8.183 4.253,6.219 -6.874,8.836 -6.2192,1.633 -5.5626,-5.891 2.6172,-8.508 -5.5625,-6.547 8.836,-6.871 -1.961,-2.617 0.6524,-13.750001 7.8557,-13.422 10.801,2.617 5.234,-4.254 14.074305,3.598 3.598,-4.5821 2.945,0.9801 z M 72.676165,152.47993 c -4.9106,7.09 -8.184,15.273 -7.8559,25.859 l -8.8359,2.289 -5.8907,-15.711 5.2344,-5.562 -3.5977,-7.199 1.3086,-8.512 10.8008,2.289 6.2184,-0.324 2.618,6.875 z m 3.929,-12.766 c 5.672,-2.398 9.602,-4.801 11.781,-7.199 l -5.89,-6.871 4.582,-13.418 10.473,3.598 c -1.801,10.253 -1.145,19.968 4.910305,28.476 l -0.653,28.805 c -8.183305,1.308 -12.875305,6.109 -14.074305,14.402 l -4.254,3.926 c -12.496,-6.762 -18.1677,-16.801 -8.836,-34.043 l 5.891,-1.961 -3.926,-15.711 z m 8.364,88.989 4.488,2.039 -4.078,15.507 -17.5472,13.465 -3.2617,-2.039 0.8164,-24.89 11.8325,0 4.894,10.199 z m 4.488,-8.977 5.711,-8.16 0,-5.711 -12.239,-11.426 -4.078,9.793 -0.406,7.344 11.016,8.16 z m -7.344,1.633 -19.5859,9.793 -6.9336,13.875 4.8946,19.179 -2.4453,0 -15.504,-6.937 -1.2226,-10.609 c -1.3594,-6.391 2.7187,-9.52 7.3437,-9.383 l 2.4453,-1.629 -6.9335,-11.426 2.4453,-8.566 10.6093,-0.817 2.4454,3.672 5.7109,-11.016 7.7534,0 2.446,9.383 6.527,4.489 z m -26.5273,43.664 -4.0781,15.508 1.6289,4.488 -1.6289,8.16 -15.0977,-2.039 -4.0781,-5.711 c -1.4922,-7.891 1.9024,-10.883 10.1992,-8.976 l -2.8554,-12.649 15.914,1.223 z m 6.9375,30.609 -6.9336,18.77 1.6289,5.711 -2.8554,2.445 -7.3438,0.816 -6.1172,-7.343 5.711,-7.344 -5.3047,-0.406 -8.5664,-11.016 c 8.4453,1.609 12.539,0.633 18.7695,-1.629 l 11.0156,0 z m -5.164,26.664 -1.9219,1.649 -0.8242,3.847 3.9843,4.399 7.4219,0.136 0.4102,-2.199 -9.0743,-7.836 z m 63.758105,-246.828001 -2.801,3.27 -5.137,-8.407 4.438,-7.004 12.145,0.7 10.742,-9.340003 8.172,3.500003 6.539,-7.703003 6.07,1.867 1.164,-5.371 4.437,-6.07 8.172,-1.3991 2.801,5.6021 1.399,6.07 1.168,3.035 8.406,-5.836 9.574,9.809003 3.5,-7.473003 9.574,4.434 -3.269,8.875003 5.601,-3.27 8.641,3.735 1.168,3.968 4.668,-6.07 7.473,-2.102 6.07,2.102 0.465,4.668 -5.137,-0.93 -0.934,3.27 -7.004,7.004 -2.101,6.0699 -11.91,0 -3.5,1.1681 -1.867,-2.102 -1.868,-8.875 -8.406,-9.339 -11.91,-0.934 -6.77,2.801 -2.566,-2.1021 -7.004,-4.9019 -5.137,-1.633 -10.976,5.3709 -7.703,10.5081 -17.75,-0.23 -8.641,3.2689 z m 119.766,211.887001 1.632,-7.27 -1.269,-4.906 3.816,-2.543 14.36,0.359 3.269,-3.269 1.633,-5.453 -2.906,1.816 -17.086,0 -2.906,3.09 -7.633,0.363 -1.453,7.996 -6.18,7.633 2.543,1.633 6.18,2.18 5.996,-1.633 z m 4.91,2 6.359,-10.723 8.723,0 -2.36,13.992 -7.269,-0.363 z m 69.05801,12.426 c 1.477,-0.067 4.977,-6.993 7.465,-10.493 l -11.097,-1.613 c 1.21,4.035 1.21,10.695 3.628,12.106 z m -1.211,14.531 17.352,-12.106 2.621,10.09 c 5.918,2.422 11.836,3.965 17.758,4.235 l 4.844,17.554 -9.079,0 -4.035,-6.656 -6.054,-1.211 -2.422,2.621 -2.824,0 -18.766,-12.512 z m 145.957,-2.246 c 5.993,-2.227 10.141,-5.379 12.446,-9.449 l 9.219,-0.227 0.691,5.762 -5.992,11.523 -10.602,0.688 -6.683,-5.989 0.921,-2.304 z m 24.43,-9.914 1.84399,2.992 6.223,0.691 4.378,-5.3 5.301,-11.524 c 0.227,-1.613 -0.152,-2.918 -1.148,-3.918 l -4.149,0.692 -3.453,-7.836 -0.226,-3.688 -2.305,-2.996 -9.21899,0 1.379,13.137 2.99599,8.066 -1.61299,9.68 z m -37.566,17.519 5.761,-14.98 10.829,0.23 4.148,-5.992 0,-5.066 -8.066,-5.071 4.148,-11.293 0.227,-3.918 -3.918,-7.144 8.066,7.836 0.918,13.597 5.07,7.375 0.918,2.536 1.383,0.226 2.992,-5.301 -0.226,-2.535 -4.379,-0.922 0,-1.843 2.535,-3.688 0.922,-15.441 1.383,-4.84 -2.305,-2.992 -6.91,0 1.844,-9.219 0.226,-2.535 -12.906,-0.688 c -0.227,9.832 -4.453,15.977 -12.676,18.438 l 1.609,16.363 -5.3,6.449 2.531,13.137 -9.68,10.367 -5.531,-2.531 -2.535,1.379 0.922,7.144 11.062,3.457 6.914,-2.535 z m 20.218,-94.164 2.825,2.512 -0.625,-9.418 -10.989,-1.254 -1.882,6.277 10.675,1.883 z m -6.593,-19.781 10.047,-5.965 0.625,-8.16 2.511,-5.648 6.278,0 4.707,-5.336 -8.477,-7.219 -8.16,-4.707 -0.625,-5.649 -2.512,-0.941 -12.242,17.894 -7.848,0.313 -1.566,7.223 0,8.789 2.824,-1.567 c 4.813,3.66 9,10.153 14.442,10.989 z m -17.27,-28.574 9.731,-4.395 1.566,-15.07 -4.707,-8.789 4.395,-0.942 4.078,-5.336 0,-4.078 -4.707,-7.218 -4.707,0 -1.254,-1.567 1.254,-5.019 -1.254,-3.453 -13.5,-4.395 -5.024,3.766 -0.941,7.847 5.023,10.36 0,6.593 -1.883,5.965 -4.707,10.989 0.313,9.417 16.324,5.336 z m 14.129,-26.692 9.106,-8.789 6.593,-2.195 0.313,8.477 -9.418,9.417 -6.594,-6.906 z m -27.945,-34.226 c 8.789,-4.867 17.582,-5.809 26.375,1.883 l 0.937,-7.532 -1.883,-3.765 1.254,-4.078 1.254,-7.219001 -8.789,-0.313 c -6.906,-4.707 -12.976,-6.07 -18.211,-4.078 l -0.941,25.117001 z m -9.805,-9.293 0.274,-8.551 9.378,-13.238001 0.825,-8.825 -9.93,0 -6.344,-10.4801 -3.859,-2.2029 -3.586,0.824 -3.859,6.067 6.066,6.894 0.824,4.688 -2.203,3.586 -12.687,-10.204 -3.86,2.204 -4.687,-1.6531 0.824,-3.3079 -10.203,-5.793 -0.551,4.41 -14.066,0.273 -4.137,9.102 -16.551,-2.481 -6.894,3.309 c 0.183,-2.113 1.472,-4.227 3.859,-6.344 l 7.445,-4.137 c 2.203,-0.457 4.41,-0.179 6.617,0.825 l 4.411,0.273 8.55,-6.066 3.032,-2.758 -1.379,-2.7581 -4.41,-1.9299 -13.516,-1.379 -1.652,1.379 -18.481,-7.168003 c -0.824,5.883003 -0.183,11.770003 1.93,17.653003 l -2.758,14.066 3.586,1.93 c 0.043,10.344 6.664,14.112901 16.273,14.894001 l 10.481,-0.824 9.379,5.238 c 7.629,-2.019 15.261,-0.7341 22.894,3.86 l 10.203,-3.86 c 0,-3.214 -1.101,-5.328 -3.308,-6.343 l -5.793,-1.653001 -4.137,1.930001 c -1.93,-2.203001 -4.226,-3.676101 -6.894,-4.410001 l -11.86,-3.86 3.86,-4.41 9.101,0.274 8.824,6.343 4.688,-1.929 10.758,3.031 -1.379,9.652001 14.894,3.86 z m -123.586,-61.793004 5.793,-6.617 -13.238,-4.411 -5.51601,6.067 c 0.735,2.664 2.94201,3.859 6.61701,3.586 l 6.344,1.379 z m 20.692,-3.313 c 1.652,3.032 2.757,8 4.964,9.102 1.379,1.191 2.02,1.2849 4.137,0.273 l 2.203,-6.343 -1.929,-3.586 -10.481,-6.8951 -1.379,6.6171 2.481,0.824 z m 31.171,12.414003 7.446,-0.55 3.586,-14.067003 -2.203,-4.965 -9.653,2.203 -1.652,9.9299 c 1.652,1.1021 1.652,4.9651 2.48,7.445103 z m 15.172,2.211 10.758,-1.379 -1.93,-8.000003 c -0.64,-2.113 -2.39,-2.757 -5.238,-1.929 l -4.41,3.308 0.824,8.000003 z m 27.309,1.93 10.48,4.687 -2.757,6.8949 -3.86,-0.2729 -3.859,-4.965 -3.031,-2.481 3.031,-3.859 z m 13.793,3.309 11.031,-2.758 -3.586,-10.481003 -4.41,-0.8241 -4.687,5.5161 0.55,3.308003 z m -109.606,106.550001 8.758,6.645 -1.527,12.859 9.488,7.348 -3.672,13.777 -3.672,3.063 -4.589,2.445 -2.454,-0.519 0,-3.485 2.579,-1.472 2.945,-8.836 -5.524,-6.629 -3.312,-3.313 1.84,-5.89 c 1.101,-6.872 -1.227,-9.817 -6.996,-8.836 l -2.575,-1.84 -0.73401,-16.938 -9.574,-2.945 2.945,-4.418 15.09801,8.102 0.367,10.679 0.617,0.211"
     style="opacity:1;fill:url(#radialGradient4539);fill-opacity:1;fill-rule:evenodd;stroke:none"
     inkscape:connector-curvature="0"
     sodipodi:nodetypes="ccccccccccccccccccccccccccccccccccccccccccccccccccccccccccccccccccccccccccccccccccccccccccccccccccccccccccccccccccccccccccccccccccccccccccccccccccccccccccccccccccccccccccccccccccccccccccccccccccccccccccccccccccccccccccccccccccccccccccccccccccccccccccccccccccccccccccccccccccccccccccccccccccccccccccccccccccccccccccccccccccccccccccccccccccccccccccccccccccccccccccccccccccccccccccccccccccccccccccccccccccccccccccccccccccccccccccccccccccccccccccccccccccccccccccccccccccccccccccccccccccccccccccccccccccccccccccccccccccccccccccccccccccccccccccccccccccccccccccccccccccccccccccccccccccccccccccccccccccccccccccccccccccccccccccccccccccccccccccccccccccccccccccccccccccccccccccccccccccccccccccccccccccccccccccccccccccccccccccccccccccccccccccccccccccccccccccccccccccccccccccccccccccccccccccccccccccccccccccccccccccccccccccccccccccccccccccccccccccccccccccccccccccccccccccccccccccccccccccccccccccccccccccccc"
     inkscape:export-xdpi="90"
     inkscape:export-ydpi="90" />
  <path
     inkscape:export-ydpi="90"
     inkscape:export-xdpi="90"
     sodipodi:nodetypes="ccccccccccccccccccccccccccccccccccccccccccccccccccccccccccccccccccccccccccccccccccccccccccccccccccccccccccccccccccccccccccccccccccccccccccccccccccccccccccccccccccccccccccccccccccccccccccccccccccccccccccccccccccccccccccccccccccccccccccccccccccccccccccccccccccccccccccccccccccccccccccccccccccccccccccccccccccccccccccccccccccccccccccccccccccccccccccccccccccccccccccccccccccccccccccccccccccccccccccccccccccccccccccccccccccccccccccccccccccccccccccccccccccccccccccccccccccccccccccccccccccccccccccccccccccccccccccccccccccccccccccccccccccccccccccccccccccccccccccccccccccccccccccccccccccccccccccccccccccccccccccccccccccccccccccccccccccccccccccccccccccccccccccccccccccccccccccccccccccccccccccccccccccccccccccccccccccccccccccccccccccccccccccccccccccccccccccccccccccccccccccccccccccccccccccccccccccccccccccccccccccccccccccccccccccccccccccccccccccccccccccccccccccccccccccccccccccccccccccccccccccccccccccccc"
     inkscape:connector-curvature="0"
     style="opacity:1;fill:url(#radialGradient4193);fill-opacity:1;fill-rule:evenodd;stroke:none"
     d="m 109.06247,167.38193 c -1.269,-6.187 -1.593,-11.613 -0.765,-16.121 l 16.89,5.758 -12.668,-15.738 c -1.406,-5.5 -0.254,-10.489 3.453,-14.969 l -7.675,4.605 0,6.524 -5.371,-3.453 c -0.895,-4.223 -1.536,-8.442 -0.383,-12.668 1.406,-3.836 3.836,-7.676 7.293,-11.516 l 9.211,-0.383 1.535,-2.301 c -3.906,-9.136001 -3.02,-25.500001 1.535,-28.019001 l 5.375,-3.453 11.516,1.148 12.281,5.371 1.148,-12.2811 6.907,-6.5229 7.292,0.765 8.829,4.606 -0.383,11.515 6.906,-10.3631 9.594,-3.836 8.828,7.2931 c 2.687,6.906 2.047,14.969 -3.453,21.8789 l -6.141,4.988101 5.371,1.535 0,7.293 5.758,0.766 6.906,5.375 -2.3,8.441 8.058,2.301 3.07,6.906 -0.765,11.516 -4.223,1.918 4.606,4.223 0,16.886 7.293,-1.148 8.828,8.828 -3.071,8.442 -11.515,5.371 0.597,3.144 9.622,-3.203 c 1.593,-2.82 3.187,-4.172 4.785,-4.051 l 5.523,-8.468 c -0.613,-8.715 -5.152,-13.504 -13.625,-14.364 -2.82,-0.242 -3.68,-1.961 -2.574,-5.152 0.98,-2.453 0.98,-4.91 0,-7.363 -2.453,-2.207 -2.453,-4.911 0,-8.102 2.207,-12.703 -2.328,-17.98 -9.941,-19.887 l 0,-7.363 c -0.243,-2.328 -1.961,-4.172 -5.153,-5.519 l -5.152,-2.579 -2.578,-10.679001 c 6.504,-5.524 14.976,-8.1021 25.41,-7.731 3.68,0.981 5.89,0.489 6.629,-1.472 l 1.472,-12.153 9.942,2.207 4.785,-2.5781 -1.102,-11.414 5.891,-7.729903 6.996,3.312003 3.68,6.6289 5.152,-0.3629 8.102,5.89 1.301,3.903 3.835,-8.289 -4.828,-7.34 -8.886,0.387 -3.09,-4.055003 -7.34,-4.442 -8.113,1.352 -5.407,5.602003 -4.441,0.382 -6.762,-4.250003 1.543,-11.976 c 2.703,-1.672 6.18,-2.574 10.43,-2.703 l 3.859,1.156 5.407,-4.828 6.179,-0.192 c 5.117,4.395 10.656,8.161 16.805,11.012 l -0.578,7.727 3.859,-3.09 10.62501,2.894 5.793,0.383 3.09,-6.18 4.633,-0.769 2.512,9.465003 10.238,2.894 7.34,5.793 -3.09,4.442 3.281,5.601 -0.769,6.375 -3.282,1.157 -5.984,-5.407 -0.191,4.442 -6.762,-0.965 -10.43,-6.762 -9.851,-0.578 -2.821,3.48 11.039,0 2.946,4.786 2.945,3.679 -2.5,12.5 0.867,5.383001 1.629,1.266 14.359,12.886 1.473,-2.574 -13.258,-13.992 5.524,-14.359001 14.73,6.261 1.84,8.836001 7.363,6.2579 1.84,8.8361 -3.68,4.051 0.735,2.945 5.523,5.52 1.469,11.418 -4.785,6.996 -7.363,0 -1.84,-1.84 -13.992,2.574 -1.473,1.84 11.414,0.734 8.101,9.204 5.524,-5.891 4.418,-1.469 7.734,1.102 0.625,18.14 0.485,0.086 14.695,0.305 -2.449,17.453 -3.059,0.305 0,3.672 9.488,4.894 -2.14,14.086 -6.43,-0.609 4.285,7.961 -4.894,10.715 -0.379,0 -0.793,1.089 -2.77,-0.172 -1.73,1.036 -0.863,3.285 6.402,1.383 4.226,-0.516 8.965,-26.176 0,-11.883 -6.683,-5.195 2.597,-17.824 -5.195,-6.309 -7.055,-1.855 -0.367,-12.625 -11.508,-10.024 1.856,-15.222 -5.195,-8.91 2.226,-12.625 9.652,-2.969 11.137,8.539 5.195,-4.824 14.11,2.597 4.082,9.282 3.34,2.968 7.054,-12.254 13.739,-1.484 4.082,5.57 0,3.34 6.683,5.567 -4.453,5.195 9.653,12.625 -2.227,16.711 -4.082,-1.485 -10.766,-0.367 -8.168,2.969 -9.304,-4.418 6.297,14.613 -1.125,9.297 12.957,-17.746 9.293,6.477 1.125,6.476 -6.196,8.168 3.098,3.379 6.476,-7.324 11.829,5.914 2.535,13.519 -5.071,7.043 5.071,-0.277 15.773,6.758 -1.969,16.055 9.012,8.168 -1.687,9.859 -3.942,0.562 -1.125,15.774 c -2.156,2.437 -10.515,-0.469 -10.703,-2.817 l 0.844,-9.859 -10.703,-12.957 2.816,-9.859 -4.785,-9.575 -10.984,-4.222 -1.688,-5.633 -11.547,-7.605 -8.73,3.941 -1.969,6.758 5.07,-3.66 3.942,1.406 5.07,-1.973 6.758,4.223 -6.195,9.859 -2.536,-1.687 -1.968,1.125 0.281,2.531 4.504,6.195 -1.125,10.422 -7.324,2.535 4.222,6.477 -6.758,8.168 -7.043,-3.66 -1.687,3.379 1.125,4.789 -5.07,8.168 -3.379,0 -8.211,-6.383 0.883,6.793 2.074,2.761 8.297,4.493 10.367,-11.063 0,-5.531 8.297,0 4.148,-3.453 0,-11.754 5.875,-3.109 c 0.344,-8.961 2.879,-16.278 6.914,-22.473 l 6.567,2.766 0.691,3.8 -2.418,16.594 10.371,3.109 1.035,6.223 -7.257,11.406 12.445,10.024 -6.914,11.754 -7.258,2.765 0.687,2.071 2.766,0 7.258,5.183 -6.914,12.789 -11.406,0.344 0,4.84 -10.024,12.789 -14.172,-2.418 c -2.187,6.684 -4.953,12.789 -8.988,17.629 l -9.68,-0.344 2.075,-8.988 -8.645,-0.344 -16.246,-8.988 8.988,-13.137 -1.383,0 -3.8,3.801 -9.332,0 -8.989,-2.418 -1.726,-6.223 17.633,-9.679 7.605,5.531 4.492,0.344 7.949,-4.84 3.457,-5.528 3.454,-0.343 10.367,1.382 6.566,-5.531 1.035,-4.148 -5.183,1.726 -8.989,-1.383 -9.679,-1.035 -6.91,8.989 -5.184,2.074 -7.262,-2.422 -4.078,-5.422 -9.449,7.559 -9.695,-3.809 -2.594,-6.406 -7.098,10.215 c -10.215,-5.481 -18.41,-11.828 -22.16,-20.082 l -2.941,6.578 -9.176,0 -5.192,-2.594 -4.15201,0.344 -0.519,5.367 -2.942,2.074 -2.941,2.77 -3.633,-0.864 -7.27,-6.23 0.692,-3.981 5.019,-10.043 18.87101,-0.863 9.868,-6.75 4.672,-8.656 11.945,-3.981 7.269,-7.617 2.422,-10.043 0.274,0.024 3.601,-18.008 -5.203,-5.816 -2.14,8.265 c 0.941,5.266 -0.075,9.555 -3.059,12.86 l 0.918,5.816 -6.121,9.797 -13.473,-2.754 0,12.859 -7.043,8.879 -19.90201,0.305 -4.59,-16.84 -5.203,1.223 -3.977,17.449 -6.429,0 0,-7.348 -4.286,-0.918 -2.14,8.571 -9.184,5.203 -10.101,-2.145 0.304,10.41 -10.101,10.102 -8.879,-2.754 3.367,-9.797 5.508,-0.918 9.797,-16.531 c 4.672,-2.543 8.09,-7.238 7.043,-19.598 l 0.304,-12.859 -3.367,-2.754 c 0.02,3.973 -0.551,7.586 -2.445,10.406 l -9.492,14.082 7.961,-3.058 3.976,-1.836 c 0.567,2.277 0.656,4.679 -0.304,7.347 l -3.493,4.735 -6.914,0.773 -1.222,8.571 -2.45,7.652 -9.3,-2.859 0,7.738 -7.446,12.211 c -3.476,-0.102 -5.558,1.187 -7.445,2.679 l -3.871,-4.168 -0.594,-6.253 -8.933,-8.34 0,-14.297 -7.743,23.527 3.571,-1.785 5.359,4.168 -3.273,16.68 8.636,-5.957 5.36,8.339 -2.383,9.231 -1.188,6.254 -5.062,2.976 -13.996,0 -1.488,4.465 3.871,4.766 0.296,5.656 -3.871,6.848 -14.593,-3.274 c -0.875,9.743 -8.723,13.907 -17.571,17.274 -6.652,-3.227 -11.117,-6.996 -14.593,-11.02 -1.985,2.879 -4.368,4.961 -7.149,6.254 l -7.445,0 c -3.074,-2.281 -5.758,-5.359 -8.0393,-9.23 l -6.551005,2.382 -6.551,-3.273 0.594,-7.445 c -17.672,-4.071 -25.0196,-14.098 -22.0391,-30.082 l 3.5701,-2.383 c -7.1443,-12.41 -10.7224,-21.641 -10.7224,-27.699 l 6.8476,-7.742 13.4028,7.742 3.273,-20.551 6.848,-1.188 7.148,4.465 -2.976,9.532 2.378,6.55 5.063005,3.274 0.8913,12.508 3.57,5.062 10.422,1.785 5.062,-2.679 13.403,9.828 5.359,-0.297 7.742,-14.293 -8.34,10.125 -3.871,0 -12.508,-9.231 -5.359,2.68 -6.551,-1.785 -5.359,-4.168 0,-7.445 1.785,-3.571 -4.766,-2.383 -2.382305,-5.656 2.086305,-11.316 -6.551305,-3.867 4.465,-14.891 -4.762,-3.574 3.273,-13.403 11.020305,2.082 3.57,10.125 0.297,8.34 8.039,5.657 2.082,3.273 0.891,17.273 14.89,4.762 13.996,10.125 7.743,-2.68 0.203,-1.07 -2.824,-1.816 -5.895,1.605 -5.359,-4.019 -3.485,-5.895 -13.937,-2.945 -3.215,-5.09 1.605,-5.629 2.946,-4.285 -0.801,-3.484 -10.184,-5.895 0.535,-6.43 5.895,-1.336 -9.918,-10.453 c -1.613,-0.996 -1.902,-3.449 -0.871,-6.566 1.719,-2.774 3.918,-4.918 6.687,-6.293 l 15.11,4.07 8.406,8.145 8.145,1.05 6.172,-9.722 -4.86,5.121 c -1.883,0.851 -4.246,0.019 -6.828,-1.574 -2.777,-0.918 -4.355,-4.242 -5.387,-8.668 -3.019,1.73 -6.523,1.293 -10.246,-0.129 -2.32,-0.961 -3.765,-3.328 -4.336,-7.094 -1.597,-3.394 -3.918,-5.582 -6.566,-7.226 l -8.012,-3.938 -1.574,5.777 2.23,1.313 c 2.145,0.961 4.465,1.398 6.961,1.312 l 1.051,1.051 1.051,7.227 -1.836,2.101 -10.918,10.293 -8.578,-3.215 2.41,-5.359 c -12.863305,-9.648 -16.441305,-17.512 -10.723305,-23.59 1.426,-5.359 5.715,-8.219 12.864305,-8.578 l 7.504,4.555 -4.903,-11.907 z m 1.262,-84.301001 3.27,23.243001 -12.11,6.546 -12.109305,-3.601 -11.781,8.184 -1.961,8.183 4.253,6.219 -6.874,8.836 -6.2192,1.633 -5.5626,-5.891 2.6172,-8.508 -5.5625,-6.547 8.836,-6.871 -1.961,-2.617 0.6524,-13.750001 7.8557,-13.422 10.801,2.617 5.234,-4.254 14.074305,3.598 3.598,-4.5821 2.945,0.9801 z M 72.676165,152.47993 c -4.9106,7.09 -8.184,15.273 -7.8559,25.859 l -8.8359,2.289 -5.8907,-15.711 5.2344,-5.562 -3.5977,-7.199 1.3086,-8.512 10.8008,2.289 6.2184,-0.324 2.618,6.875 z m 3.929,-12.766 c 5.672,-2.398 9.602,-4.801 11.781,-7.199 l -5.89,-6.871 4.582,-13.418 10.473,3.598 c -1.801,10.253 -1.145,19.968 4.910305,28.476 l -0.653,28.805 c -8.183305,1.308 -12.875305,6.109 -14.074305,14.402 l -4.254,3.926 c -12.496,-6.762 -18.1677,-16.801 -8.836,-34.043 l 5.891,-1.961 -3.926,-15.711 z m 8.364,88.989 4.488,2.039 -4.078,15.507 -17.5472,13.465 -3.2617,-2.039 0.8164,-24.89 11.8325,0 4.894,10.199 z m 4.488,-8.977 5.711,-8.16 0,-5.711 -12.239,-11.426 -4.078,9.793 -0.406,7.344 11.016,8.16 z m -7.344,1.633 -19.5859,9.793 -6.9336,13.875 4.8946,19.179 -2.4453,0 -15.504,-6.937 -1.2226,-10.609 c -1.3594,-6.391 2.7187,-9.52 7.3437,-9.383 l 2.4453,-1.629 -6.9335,-11.426 2.4453,-8.566 10.6093,-0.817 2.4454,3.672 5.7109,-11.016 7.7534,0 2.446,9.383 6.527,4.489 z m -26.5273,43.664 -4.0781,15.508 1.6289,4.488 -1.6289,8.16 -15.0977,-2.039 -4.0781,-5.711 c -1.4922,-7.891 1.9024,-10.883 10.1992,-8.976 l -2.8554,-12.649 15.914,1.223 z m 6.9375,30.609 -6.9336,18.77 1.6289,5.711 -2.8554,2.445 -7.3438,0.816 -6.1172,-7.343 5.711,-7.344 -5.3047,-0.406 -8.5664,-11.016 c 8.4453,1.609 12.539,0.633 18.7695,-1.629 l 11.0156,0 z m -5.164,26.664 -1.9219,1.649 -0.8242,3.847 3.9843,4.399 7.4219,0.136 0.4102,-2.199 -9.0743,-7.836 z m 63.758105,-246.828001 -2.801,3.27 -5.137,-8.407 4.438,-7.004 12.145,0.7 10.742,-9.340003 8.172,3.500003 6.539,-7.703003 6.07,1.867 1.164,-5.371 4.437,-6.07 8.172,-1.3991 2.801,5.6021 1.399,6.07 1.168,3.035 8.406,-5.836 9.574,9.809003 3.5,-7.473003 9.574,4.434 -3.269,8.875003 5.601,-3.27 8.641,3.735 1.168,3.968 4.668,-6.07 7.473,-2.102 6.07,2.102 0.465,4.668 -5.137,-0.93 -0.934,3.27 -7.004,7.004 -2.101,6.0699 -11.91,0 -3.5,1.1681 -1.867,-2.102 -1.868,-8.875 -8.406,-9.339 -11.91,-0.934 -6.77,2.801 -2.566,-2.1021 -7.004,-4.9019 -5.137,-1.633 -10.976,5.3709 -7.703,10.5081 -17.75,-0.23 -8.641,3.2689 z m 119.766,211.887001 1.632,-7.27 -1.269,-4.906 3.816,-2.543 14.36,0.359 3.269,-3.269 1.633,-5.453 -2.906,1.816 -17.086,0 -2.906,3.09 -7.633,0.363 -1.453,7.996 -6.18,7.633 2.543,1.633 6.18,2.18 5.996,-1.633 z m 4.91,2 6.359,-10.723 8.723,0 -2.36,13.992 -7.269,-0.363 z m 69.05801,12.426 c 1.477,-0.067 4.977,-6.993 7.465,-10.493 l -11.097,-1.613 c 1.21,4.035 1.21,10.695 3.628,12.106 z m -1.211,14.531 17.352,-12.106 2.621,10.09 c 5.918,2.422 11.836,3.965 17.758,4.235 l 4.844,17.554 -9.079,0 -4.035,-6.656 -6.054,-1.211 -2.422,2.621 -2.824,0 -18.766,-12.512 z m 145.957,-2.246 c 5.993,-2.227 10.141,-5.379 12.446,-9.449 l 9.219,-0.227 0.691,5.762 -5.992,11.523 -10.602,0.688 -6.683,-5.989 0.921,-2.304 z m 24.43,-9.914 1.84399,2.992 6.223,0.691 4.378,-5.3 5.301,-11.524 c 0.227,-1.613 -0.152,-2.918 -1.148,-3.918 l -4.149,0.692 -3.453,-7.836 -0.226,-3.688 -2.305,-2.996 -9.21899,0 1.379,13.137 2.99599,8.066 -1.61299,9.68 z m -37.566,17.519 5.761,-14.98 10.829,0.23 4.148,-5.992 0,-5.066 -8.066,-5.071 4.148,-11.293 0.227,-3.918 -3.918,-7.144 8.066,7.836 0.918,13.597 5.07,7.375 0.918,2.536 1.383,0.226 2.992,-5.301 -0.226,-2.535 -4.379,-0.922 0,-1.843 2.535,-3.688 0.922,-15.441 1.383,-4.84 -2.305,-2.992 -6.91,0 1.844,-9.219 0.226,-2.535 -12.906,-0.688 c -0.227,9.832 -4.453,15.977 -12.676,18.438 l 1.609,16.363 -5.3,6.449 2.531,13.137 -9.68,10.367 -5.531,-2.531 -2.535,1.379 0.922,7.144 11.062,3.457 6.914,-2.535 z m 20.218,-94.164 2.825,2.512 -0.625,-9.418 -10.989,-1.254 -1.882,6.277 10.675,1.883 z m -6.593,-19.781 10.047,-5.965 0.625,-8.16 2.511,-5.648 6.278,0 4.707,-5.336 -8.477,-7.219 -8.16,-4.707 -0.625,-5.649 -2.512,-0.941 -12.242,17.894 -7.848,0.313 -1.566,7.223 0,8.789 2.824,-1.567 c 4.813,3.66 9,10.153 14.442,10.989 z m -17.27,-28.574 9.731,-4.395 1.566,-15.07 -4.707,-8.789 4.395,-0.942 4.078,-5.336 0,-4.078 -4.707,-7.218 -4.707,0 -1.254,-1.567 1.254,-5.019 -1.254,-3.453 -13.5,-4.395 -5.024,3.766 -0.941,7.847 5.023,10.36 0,6.593 -1.883,5.965 -4.707,10.989 0.313,9.417 16.324,5.336 z m 14.129,-26.692 9.106,-8.789 6.593,-2.195 0.313,8.477 -9.418,9.417 -6.594,-6.906 z m -27.945,-34.226 c 8.789,-4.867 17.582,-5.809 26.375,1.883 l 0.937,-7.532 -1.883,-3.765 1.254,-4.078 1.254,-7.219001 -8.789,-0.313 c -6.906,-4.707 -12.976,-6.07 -18.211,-4.078 l -0.941,25.117001 z m -9.805,-9.293 0.274,-8.551 9.378,-13.238001 0.825,-8.825 -9.93,0 -6.344,-10.4801 -3.859,-2.2029 -3.586,0.824 -3.859,6.067 6.066,6.894 0.824,4.688 -2.203,3.586 -12.687,-10.204 -3.86,2.204 -4.687,-1.6531 0.824,-3.3079 -10.203,-5.793 -0.551,4.41 -14.066,0.273 -4.137,9.102 -16.551,-2.481 -6.894,3.309 c 0.183,-2.113 1.472,-4.227 3.859,-6.344 l 7.445,-4.137 c 2.203,-0.457 4.41,-0.179 6.617,0.825 l 4.411,0.273 8.55,-6.066 3.032,-2.758 -1.379,-2.7581 -4.41,-1.9299 -13.516,-1.379 -1.652,1.379 -18.481,-7.168003 c -0.824,5.883003 -0.183,11.770003 1.93,17.653003 l -2.758,14.066 3.586,1.93 c 0.043,10.344 6.664,14.112901 16.273,14.894001 l 10.481,-0.824 9.379,5.238 c 7.629,-2.019 15.261,-0.7341 22.894,3.86 l 10.203,-3.86 c 0,-3.214 -1.101,-5.328 -3.308,-6.343 l -5.793,-1.653001 -4.137,1.930001 c -1.93,-2.203001 -4.226,-3.676101 -6.894,-4.410001 l -11.86,-3.86 3.86,-4.41 9.101,0.274 8.824,6.343 4.688,-1.929 10.758,3.031 -1.379,9.652001 14.894,3.86 z m -123.586,-61.793004 5.793,-6.617 -13.238,-4.411 -5.51601,6.067 c 0.735,2.664 2.94201,3.859 6.61701,3.586 l 6.344,1.379 z m 20.692,-3.313 c 1.652,3.032 2.757,8 4.964,9.102 1.379,1.191 2.02,1.2849 4.137,0.273 l 2.203,-6.343 -1.929,-3.586 -10.481,-6.8951 -1.379,6.6171 2.481,0.824 z m 31.171,12.414003 7.446,-0.55 3.586,-14.067003 -2.203,-4.965 -9.653,2.203 -1.652,9.9299 c 1.652,1.1021 1.652,4.9651 2.48,7.445103 z m 15.172,2.211 10.758,-1.379 -1.93,-8.000003 c -0.64,-2.113 -2.39,-2.757 -5.238,-1.929 l -4.41,3.308 0.824,8.000003 z m 27.309,1.93 10.48,4.687 -2.757,6.8949 -3.86,-0.2729 -3.859,-4.965 -3.031,-2.481 3.031,-3.859 z m 13.793,3.309 11.031,-2.758 -3.586,-10.481003 -4.41,-0.8241 -4.687,5.5161 0.55,3.308003 z m -109.606,106.550001 8.758,6.645 -1.527,12.859 9.488,7.348 -3.672,13.777 -3.672,3.063 -4.589,2.445 -2.454,-0.519 0,-3.485 2.579,-1.472 2.945,-8.836 -5.524,-6.629 -3.312,-3.313 1.84,-5.89 c 1.101,-6.872 -1.227,-9.817 -6.996,-8.836 l -2.575,-1.84 -0.73401,-16.938 -9.574,-2.945 2.945,-4.418 15.09801,8.102 0.367,10.679 0.617,0.211"
     id="path4169" />
  <path
     id="path4183"
     d="m 109.06247,167.38193 c -1.269,-6.187 -1.593,-11.613 -0.765,-16.121 l 16.89,5.758 -12.668,-15.738 c -1.406,-5.5 -0.254,-10.489 3.453,-14.969 l -7.675,4.605 0,6.524 -5.371,-3.453 c -0.895,-4.223 -1.536,-8.442 -0.383,-12.668 1.406,-3.836 3.836,-7.676 7.293,-11.516 l 9.211,-0.383 1.535,-2.301 c -3.906,-9.136001 -3.02,-25.500001 1.535,-28.019001 l 5.375,-3.453 11.516,1.148 12.281,5.371 1.148,-12.2811 6.907,-6.5229 7.292,0.765 8.829,4.606 -0.383,11.515 6.906,-10.3631 9.594,-3.836 8.828,7.2931 c 2.687,6.906 2.047,14.969 -3.453,21.8789 l -6.141,4.988101 5.371,1.535 0,7.293 5.758,0.766 6.906,5.375 -2.3,8.441 8.058,2.301 3.07,6.906 -0.765,11.516 -4.223,1.918 4.606,4.223 0,16.886 7.293,-1.148 8.828,8.828 -3.071,8.442 -11.515,5.371 0.597,3.144 9.622,-3.203 c 1.593,-2.82 3.187,-4.172 4.785,-4.051 l 5.523,-8.468 c -0.613,-8.715 -5.152,-13.504 -13.625,-14.364 -2.82,-0.242 -3.68,-1.961 -2.574,-5.152 0.98,-2.453 0.98,-4.91 0,-7.363 -2.453,-2.207 -2.453,-4.911 0,-8.102 2.207,-12.703 -2.328,-17.98 -9.941,-19.887 l 0,-7.363 c -0.243,-2.328 -1.961,-4.172 -5.153,-5.519 l -5.152,-2.579 -2.578,-10.679001 c 6.504,-5.524 14.976,-8.1021 25.41,-7.731 3.68,0.981 5.89,0.489 6.629,-1.472 l 1.472,-12.153 9.942,2.207 4.785,-2.5781 -1.102,-11.414 5.891,-7.729903 6.996,3.312003 3.68,6.6289 5.152,-0.3629 8.102,5.89 1.301,3.903 3.835,-8.289 -4.828,-7.34 -8.886,0.387 -3.09,-4.055003 -7.34,-4.442 -8.113,1.352 -5.407,5.602003 -4.441,0.382 -6.762,-4.250003 1.543,-11.976 c 2.703,-1.672 6.18,-2.574 10.43,-2.703 l 3.859,1.156 5.407,-4.828 6.179,-0.192 c 5.117,4.395 10.656,8.161 16.805,11.012 l -0.578,7.727 3.859,-3.09 10.62501,2.894 5.793,0.383 3.09,-6.18 4.633,-0.769 2.512,9.465003 10.238,2.894 7.34,5.793 -3.09,4.442 3.281,5.601 -0.769,6.375 -3.282,1.157 -5.984,-5.407 -0.191,4.442 -6.762,-0.965 -10.43,-6.762 -9.851,-0.578 -2.821,3.48 11.039,0 2.946,4.786 2.945,3.679 -2.5,12.5 0.867,5.383001 1.629,1.266 14.359,12.886 1.473,-2.574 -13.258,-13.992 5.524,-14.359001 14.73,6.261 1.84,8.836001 7.363,6.2579 1.84,8.8361 -3.68,4.051 0.735,2.945 5.523,5.52 1.469,11.418 -4.785,6.996 -7.363,0 -1.84,-1.84 -13.992,2.574 -1.473,1.84 11.414,0.734 8.101,9.204 5.524,-5.891 4.418,-1.469 7.734,1.102 0.625,18.14 0.485,0.086 14.695,0.305 -2.449,17.453 -3.059,0.305 0,3.672 9.488,4.894 -2.14,14.086 -6.43,-0.609 4.285,7.961 -4.894,10.715 -0.379,0 -0.793,1.089 -2.77,-0.172 -1.73,1.036 -0.863,3.285 6.402,1.383 4.226,-0.516 8.965,-26.176 0,-11.883 -6.683,-5.195 2.597,-17.824 -5.195,-6.309 -7.055,-1.855 -0.367,-12.625 -11.508,-10.024 1.856,-15.222 -5.195,-8.91 2.226,-12.625 9.652,-2.969 11.137,8.539 5.195,-4.824 14.11,2.597 4.082,9.282 3.34,2.968 7.054,-12.254 13.739,-1.484 4.082,5.57 0,3.34 6.683,5.567 -4.453,5.195 9.653,12.625 -2.227,16.711 -4.082,-1.485 -10.766,-0.367 -8.168,2.969 -9.304,-4.418 6.297,14.613 -1.125,9.297 12.957,-17.746 9.293,6.477 1.125,6.476 -6.196,8.168 3.098,3.379 6.476,-7.324 11.829,5.914 2.535,13.519 -5.071,7.043 5.071,-0.277 15.773,6.758 -1.969,16.055 9.012,8.168 -1.687,9.859 -3.942,0.562 -1.125,15.774 c -2.156,2.437 -10.515,-0.469 -10.703,-2.817 l 0.844,-9.859 -10.703,-12.957 2.816,-9.859 -4.785,-9.575 -10.984,-4.222 -1.688,-5.633 -11.547,-7.605 -8.73,3.941 -1.969,6.758 5.07,-3.66 3.942,1.406 5.07,-1.973 6.758,4.223 -6.195,9.859 -2.536,-1.687 -1.968,1.125 0.281,2.531 4.504,6.195 -1.125,10.422 -7.324,2.535 4.222,6.477 -6.758,8.168 -7.043,-3.66 -1.687,3.379 1.125,4.789 -5.07,8.168 -3.379,0 -8.211,-6.383 0.883,6.793 2.074,2.761 8.297,4.493 10.367,-11.063 0,-5.531 8.297,0 4.148,-3.453 0,-11.754 5.875,-3.109 c 0.344,-8.961 2.879,-16.278 6.914,-22.473 l 6.567,2.766 0.691,3.8 -2.418,16.594 10.371,3.109 1.035,6.223 -7.257,11.406 12.445,10.024 -6.914,11.754 -7.258,2.765 0.687,2.071 2.766,0 7.258,5.183 -6.914,12.789 -11.406,0.344 0,4.84 -10.024,12.789 -14.172,-2.418 c -2.187,6.684 -4.953,12.789 -8.988,17.629 l -9.68,-0.344 2.075,-8.988 -8.645,-0.344 -16.246,-8.988 8.988,-13.137 -1.383,0 -3.8,3.801 -9.332,0 -8.989,-2.418 -1.726,-6.223 17.633,-9.679 7.605,5.531 4.492,0.344 7.949,-4.84 3.457,-5.528 3.454,-0.343 10.367,1.382 6.566,-5.531 1.035,-4.148 -5.183,1.726 -8.989,-1.383 -9.679,-1.035 -6.91,8.989 -5.184,2.074 -7.262,-2.422 -4.078,-5.422 -9.449,7.559 -9.695,-3.809 -2.594,-6.406 -7.098,10.215 c -10.215,-5.481 -18.41,-11.828 -22.16,-20.082 l -2.941,6.578 -9.176,0 -5.192,-2.594 -4.15201,0.344 -0.519,5.367 -2.942,2.074 -2.941,2.77 -3.633,-0.864 -7.27,-6.23 0.692,-3.981 5.019,-10.043 18.87101,-0.863 9.868,-6.75 4.672,-8.656 11.945,-3.981 7.269,-7.617 2.422,-10.043 0.274,0.024 3.601,-18.008 -5.203,-5.816 -2.14,8.265 c 0.941,5.266 -0.075,9.555 -3.059,12.86 l 0.918,5.816 -6.121,9.797 -13.473,-2.754 0,12.859 -7.043,8.879 -19.90201,0.305 -4.59,-16.84 -5.203,1.223 -3.977,17.449 -6.429,0 0,-7.348 -4.286,-0.918 -2.14,8.571 -9.184,5.203 -10.101,-2.145 0.304,10.41 -10.101,10.102 -8.879,-2.754 3.367,-9.797 5.508,-0.918 9.797,-16.531 c 4.672,-2.543 8.09,-7.238 7.043,-19.598 l 0.304,-12.859 -3.367,-2.754 c 0.02,3.973 -0.551,7.586 -2.445,10.406 l -9.492,14.082 7.961,-3.058 3.976,-1.836 c 0.567,2.277 0.656,4.679 -0.304,7.347 l -3.493,4.735 -6.914,0.773 -1.222,8.571 -2.45,7.652 -9.3,-2.859 0,7.738 -7.446,12.211 c -3.476,-0.102 -5.558,1.187 -7.445,2.679 l -3.871,-4.168 -0.594,-6.253 -8.933,-8.34 0,-14.297 -7.743,23.527 3.571,-1.785 5.359,4.168 -3.273,16.68 8.636,-5.957 5.36,8.339 -2.383,9.231 -1.188,6.254 -5.062,2.976 -13.996,0 -1.488,4.465 3.871,4.766 0.296,5.656 -3.871,6.848 -14.593,-3.274 c -0.875,9.743 -8.723,13.907 -17.571,17.274 -6.652,-3.227 -11.117,-6.996 -14.593,-11.02 -1.985,2.879 -4.368,4.961 -7.149,6.254 l -7.445,0 c -3.074,-2.281 -5.758,-5.359 -8.0393,-9.23 l -6.551005,2.382 -6.551,-3.273 0.594,-7.445 c -17.672,-4.071 -25.0196,-14.098 -22.0391,-30.082 l 3.5701,-2.383 c -7.1443,-12.41 -10.7224,-21.641 -10.7224,-27.699 l 6.8476,-7.742 13.4028,7.742 3.273,-20.551 6.848,-1.188 7.148,4.465 -2.976,9.532 2.378,6.55 5.063005,3.274 0.8913,12.508 3.57,5.062 10.422,1.785 5.062,-2.679 13.403,9.828 5.359,-0.297 7.742,-14.293 -8.34,10.125 -3.871,0 -12.508,-9.231 -5.359,2.68 -6.551,-1.785 -5.359,-4.168 0,-7.445 1.785,-3.571 -4.766,-2.383 -2.382305,-5.656 2.086305,-11.316 -6.551305,-3.867 4.465,-14.891 -4.762,-3.574 3.273,-13.403 11.020305,2.082 3.57,10.125 0.297,8.34 8.039,5.657 2.082,3.273 0.891,17.273 14.89,4.762 13.996,10.125 7.743,-2.68 0.203,-1.07 -2.824,-1.816 -5.895,1.605 -5.359,-4.019 -3.485,-5.895 -13.937,-2.945 -3.215,-5.09 1.605,-5.629 2.946,-4.285 -0.801,-3.484 -10.184,-5.895 0.535,-6.43 5.895,-1.336 -9.918,-10.453 c -1.613,-0.996 -1.902,-3.449 -0.871,-6.566 1.719,-2.774 3.918,-4.918 6.687,-6.293 l 15.11,4.07 8.406,8.145 8.145,1.05 6.172,-9.722 -4.86,5.121 c -1.883,0.851 -4.246,0.019 -6.828,-1.574 -2.777,-0.918 -4.355,-4.242 -5.387,-8.668 -3.019,1.73 -6.523,1.293 -10.246,-0.129 -2.32,-0.961 -3.765,-3.328 -4.336,-7.094 -1.597,-3.394 -3.918,-5.582 -6.566,-7.226 l -8.012,-3.938 -1.574,5.777 2.23,1.313 c 2.145,0.961 4.465,1.398 6.961,1.312 l 1.051,1.051 1.051,7.227 -1.836,2.101 -10.918,10.293 -8.578,-3.215 2.41,-5.359 c -12.863305,-9.648 -16.441305,-17.512 -10.723305,-23.59 1.426,-5.359 5.715,-8.219 12.864305,-8.578 l 7.504,4.555 -4.903,-11.907 z m 1.262,-84.301001 3.27,23.243001 -12.11,6.546 -12.109305,-3.601 -11.781,8.184 -1.961,8.183 4.253,6.219 -6.874,8.836 -6.2192,1.633 -5.5626,-5.891 2.6172,-8.508 -5.5625,-6.547 8.836,-6.871 -1.961,-2.617 0.6524,-13.750001 7.8557,-13.422 10.801,2.617 5.234,-4.254 14.074305,3.598 3.598,-4.5821 2.945,0.9801 z M 72.676165,152.47993 c -4.9106,7.09 -8.184,15.273 -7.8559,25.859 l -8.8359,2.289 -5.8907,-15.711 5.2344,-5.562 -3.5977,-7.199 1.3086,-8.512 10.8008,2.289 6.2184,-0.324 2.618,6.875 z m 3.929,-12.766 c 5.672,-2.398 9.602,-4.801 11.781,-7.199 l -5.89,-6.871 4.582,-13.418 10.473,3.598 c -1.801,10.253 -1.145,19.968 4.910305,28.476 l -0.653,28.805 c -8.183305,1.308 -12.875305,6.109 -14.074305,14.402 l -4.254,3.926 c -12.496,-6.762 -18.1677,-16.801 -8.836,-34.043 l 5.891,-1.961 -3.926,-15.711 z m 8.364,88.989 4.488,2.039 -4.078,15.507 -17.5472,13.465 -3.2617,-2.039 0.8164,-24.89 11.8325,0 4.894,10.199 z m 4.488,-8.977 5.711,-8.16 0,-5.711 -12.239,-11.426 -4.078,9.793 -0.406,7.344 11.016,8.16 z m -7.344,1.633 -19.5859,9.793 -6.9336,13.875 4.8946,19.179 -2.4453,0 -15.504,-6.937 -1.2226,-10.609 c -1.3594,-6.391 2.7187,-9.52 7.3437,-9.383 l 2.4453,-1.629 -6.9335,-11.426 2.4453,-8.566 10.6093,-0.817 2.4454,3.672 5.7109,-11.016 7.7534,0 2.446,9.383 6.527,4.489 z m -26.5273,43.664 -4.0781,15.508 1.6289,4.488 -1.6289,8.16 -15.0977,-2.039 -4.0781,-5.711 c -1.4922,-7.891 1.9024,-10.883 10.1992,-8.976 l -2.8554,-12.649 15.914,1.223 z m 6.9375,30.609 -6.9336,18.77 1.6289,5.711 -2.8554,2.445 -7.3438,0.816 -6.1172,-7.343 5.711,-7.344 -5.3047,-0.406 -8.5664,-11.016 c 8.4453,1.609 12.539,0.633 18.7695,-1.629 l 11.0156,0 z m -5.164,26.664 -1.9219,1.649 -0.8242,3.847 3.9843,4.399 7.4219,0.136 0.4102,-2.199 -9.0743,-7.836 z m 63.758105,-246.828001 -2.801,3.27 -5.137,-8.407 4.438,-7.004 12.145,0.7 10.742,-9.340003 8.172,3.500003 6.539,-7.703003 6.07,1.867 1.164,-5.371 4.437,-6.07 8.172,-1.3991 2.801,5.6021 1.399,6.07 1.168,3.035 8.406,-5.836 9.574,9.809003 3.5,-7.473003 9.574,4.434 -3.269,8.875003 5.601,-3.27 8.641,3.735 1.168,3.968 4.668,-6.07 7.473,-2.102 6.07,2.102 0.465,4.668 -5.137,-0.93 -0.934,3.27 -7.004,7.004 -2.101,6.0699 -11.91,0 -3.5,1.1681 -1.867,-2.102 -1.868,-8.875 -8.406,-9.339 -11.91,-0.934 -6.77,2.801 -2.566,-2.1021 -7.004,-4.9019 -5.137,-1.633 -10.976,5.3709 -7.703,10.5081 -17.75,-0.23 -8.641,3.2689 z m 119.766,211.887001 1.632,-7.27 -1.269,-4.906 3.816,-2.543 14.36,0.359 3.269,-3.269 1.633,-5.453 -2.906,1.816 -17.086,0 -2.906,3.09 -7.633,0.363 -1.453,7.996 -6.18,7.633 2.543,1.633 6.18,2.18 5.996,-1.633 z m 4.91,2 6.359,-10.723 8.723,0 -2.36,13.992 -7.269,-0.363 z m 69.05801,12.426 c 1.477,-0.067 4.977,-6.993 7.465,-10.493 l -11.097,-1.613 c 1.21,4.035 1.21,10.695 3.628,12.106 z m -1.211,14.531 17.352,-12.106 2.621,10.09 c 5.918,2.422 11.836,3.965 17.758,4.235 l 4.844,17.554 -9.079,0 -4.035,-6.656 -6.054,-1.211 -2.422,2.621 -2.824,0 -18.766,-12.512 z m 145.957,-2.246 c 5.993,-2.227 10.141,-5.379 12.446,-9.449 l 9.219,-0.227 0.691,5.762 -5.992,11.523 -10.602,0.688 -6.683,-5.989 0.921,-2.304 z m 24.43,-9.914 1.84399,2.992 6.223,0.691 4.378,-5.3 5.301,-11.524 c 0.227,-1.613 -0.152,-2.918 -1.148,-3.918 l -4.149,0.692 -3.453,-7.836 -0.226,-3.688 -2.305,-2.996 -9.21899,0 1.379,13.137 2.99599,8.066 -1.61299,9.68 z m -37.566,17.519 5.761,-14.98 10.829,0.23 4.148,-5.992 0,-5.066 -8.066,-5.071 4.148,-11.293 0.227,-3.918 -3.918,-7.144 8.066,7.836 0.918,13.597 5.07,7.375 0.918,2.536 1.383,0.226 2.992,-5.301 -0.226,-2.535 -4.379,-0.922 0,-1.843 2.535,-3.688 0.922,-15.441 1.383,-4.84 -2.305,-2.992 -6.91,0 1.844,-9.219 0.226,-2.535 -12.906,-0.688 c -0.227,9.832 -4.453,15.977 -12.676,18.438 l 1.609,16.363 -5.3,6.449 2.531,13.137 -9.68,10.367 -5.531,-2.531 -2.535,1.379 0.922,7.144 11.062,3.457 6.914,-2.535 z m 20.218,-94.164 2.825,2.512 -0.625,-9.418 -10.989,-1.254 -1.882,6.277 10.675,1.883 z m -6.593,-19.781 10.047,-5.965 0.625,-8.16 2.511,-5.648 6.278,0 4.707,-5.336 -8.477,-7.219 -8.16,-4.707 -0.625,-5.649 -2.512,-0.941 -12.242,17.894 -7.848,0.313 -1.566,7.223 0,8.789 2.824,-1.567 c 4.813,3.66 9,10.153 14.442,10.989 z m -17.27,-28.574 9.731,-4.395 1.566,-15.07 -4.707,-8.789 4.395,-0.942 4.078,-5.336 0,-4.078 -4.707,-7.218 -4.707,0 -1.254,-1.567 1.254,-5.019 -1.254,-3.453 -13.5,-4.395 -5.024,3.766 -0.941,7.847 5.023,10.36 0,6.593 -1.883,5.965 -4.707,10.989 0.313,9.417 16.324,5.336 z m 14.129,-26.692 9.106,-8.789 6.593,-2.195 0.313,8.477 -9.418,9.417 -6.594,-6.906 z m -27.945,-34.226 c 8.789,-4.867 17.582,-5.809 26.375,1.883 l 0.937,-7.532 -1.883,-3.765 1.254,-4.078 1.254,-7.219001 -8.789,-0.313 c -6.906,-4.707 -12.976,-6.07 -18.211,-4.078 l -0.941,25.117001 z m -9.805,-9.293 0.274,-8.551 9.378,-13.238001 0.825,-8.825 -9.93,0 -6.344,-10.4801 -3.859,-2.2029 -3.586,0.824 -3.859,6.067 6.066,6.894 0.824,4.688 -2.203,3.586 -12.687,-10.204 -3.86,2.204 -4.687,-1.6531 0.824,-3.3079 -10.203,-5.793 -0.551,4.41 -14.066,0.273 -4.137,9.102 -16.551,-2.481 -6.894,3.309 c 0.183,-2.113 1.472,-4.227 3.859,-6.344 l 7.445,-4.137 c 2.203,-0.457 4.41,-0.179 6.617,0.825 l 4.411,0.273 8.55,-6.066 3.032,-2.758 -1.379,-2.7581 -4.41,-1.9299 -13.516,-1.379 -1.652,1.379 -18.481,-7.168003 c -0.824,5.883003 -0.183,11.770003 1.93,17.653003 l -2.758,14.066 3.586,1.93 c 0.043,10.344 6.664,14.112901 16.273,14.894001 l 10.481,-0.824 9.379,5.238 c 7.629,-2.019 15.261,-0.7341 22.894,3.86 l 10.203,-3.86 c 0,-3.214 -1.101,-5.328 -3.308,-6.343 l -5.793,-1.653001 -4.137,1.930001 c -1.93,-2.203001 -4.226,-3.676101 -6.894,-4.410001 l -11.86,-3.86 3.86,-4.41 9.101,0.274 8.824,6.343 4.688,-1.929 10.758,3.031 -1.379,9.652001 14.894,3.86 z m -123.586,-61.793004 5.793,-6.617 -13.238,-4.411 -5.51601,6.067 c 0.735,2.664 2.94201,3.859 6.61701,3.586 l 6.344,1.379 z m 20.692,-3.313 c 1.652,3.032 2.757,8 4.964,9.102 1.379,1.191 2.02,1.2849 4.137,0.273 l 2.203,-6.343 -1.929,-3.586 -10.481,-6.8951 -1.379,6.6171 2.481,0.824 z m 31.171,12.414003 7.446,-0.55 3.586,-14.067003 -2.203,-4.965 -9.653,2.203 -1.652,9.9299 c 1.652,1.1021 1.652,4.9651 2.48,7.445103 z m 15.172,2.211 10.758,-1.379 -1.93,-8.000003 c -0.64,-2.113 -2.39,-2.757 -5.238,-1.929 l -4.41,3.308 0.824,8.000003 z m 27.309,1.93 10.48,4.687 -2.757,6.8949 -3.86,-0.2729 -3.859,-4.965 -3.031,-2.481 3.031,-3.859 z m 13.793,3.309 11.031,-2.758 -3.586,-10.481003 -4.41,-0.8241 -4.687,5.5161 0.55,3.308003 z m -109.606,106.550001 8.758,6.645 -1.527,12.859 9.488,7.348 -3.672,13.777 -3.672,3.063 -4.589,2.445 -2.454,-0.519 0,-3.485 2.579,-1.472 2.945,-8.836 -5.524,-6.629 -3.312,-3.313 1.84,-5.89 c 1.101,-6.872 -1.227,-9.817 -6.996,-8.836 l -2.575,-1.84 -0.73401,-16.938 -9.574,-2.945 2.945,-4.418 15.09801,8.102 0.367,10.679 0.617,0.211"
     style="opacity:1;fill:#00b44b;fill-opacity:1;fill-rule:evenodd;stroke:none"
     inkscape:connector-curvature="0"
     sodipodi:nodetypes="ccccccccccccccccccccccccccccccccccccccccccccccccccccccccccccccccccccccccccccccccccccccccccccccccccccccccccccccccccccccccccccccccccccccccccccccccccccccccccccccccccccccccccccccccccccccccccccccccccccccccccccccccccccccccccccccccccccccccccccccccccccccccccccccccccccccccccccccccccccccccccccccccccccccccccccccccccccccccccccccccccccccccccccccccccccccccccccccccccccccccccccccccccccccccccccccccccccccccccccccccccccccccccccccccccccccccccccccccccccccccccccccccccccccccccccccccccccccccccccccccccccccccccccccccccccccccccccccccccccccccccccccccccccccccccccccccccccccccccccccccccccccccccccccccccccccccccccccccccccccccccccccccccccccccccccccccccccccccccccccccccccccccccccccccccccccccccccccccccccccccccccccccccccccccccccccccccccccccccccccccccccccccccccccccccccccccccccccccccccccccccccccccccccccccccccccccccccccccccccccccccccccccccccccccccccccccccccccccccccccccccccccccccccccccccccccccccccccccccccccccccccccccccccc"
     inkscape:export-xdpi="90"
     inkscape:export-ydpi="90" />
</svg>
